<?xml version="1.0" encoding="UTF-8"?>
<svg width="481px" height="375px" viewBox="0 0 481 375" version="1.1" xmlns="http://www.w3.org/2000/svg" xmlns:xlink="http://www.w3.org/1999/xlink">
    <title>ethereum</title>
    <defs>
        <linearGradient x1="43.1109126%" y1="10.1590752%" x2="70.3585729%" y2="136.5459%" id="linearGradient-1">
            <stop stop-color="#010101" stop-opacity="0" offset="0%"></stop>
            <stop stop-color="#010101" offset="95%"></stop>
        </linearGradient>
        <linearGradient x1="90.2168652%" y1="52.99472%" x2="-93.4681729%" y2="39.2111443%" id="linearGradient-2">
            <stop stop-color="#010101" stop-opacity="0" offset="0%"></stop>
            <stop stop-color="#010101" offset="95%"></stop>
        </linearGradient>
        <linearGradient x1="44.3950014%" y1="21.6772423%" x2="68.4406449%" y2="143.200137%" id="linearGradient-3">
            <stop stop-color="#010101" stop-opacity="0" offset="0%"></stop>
            <stop stop-color="#010101" offset="95%"></stop>
        </linearGradient>
        <linearGradient x1="38.8465915%" y1="65.8642944%" x2="79.8978081%" y2="7.50043607%" id="linearGradient-4">
            <stop stop-color="#010101" stop-opacity="0" offset="0%"></stop>
            <stop stop-color="#010101" offset="95%"></stop>
        </linearGradient>
        <linearGradient x1="39.2857112%" y1="15.420082%" x2="63.9033229%" y2="209.255464%" id="linearGradient-5">
            <stop stop-color="#010101" stop-opacity="0" offset="0%"></stop>
            <stop stop-color="#010101" offset="95%"></stop>
        </linearGradient>
        <linearGradient x1="51.1202962%" y1="-8.28536543%" x2="29.4060994%" y2="157.648701%" id="linearGradient-6">
            <stop stop-color="#010101" stop-opacity="0" offset="0%"></stop>
            <stop stop-color="#010101" offset="95%"></stop>
        </linearGradient>
        <linearGradient x1="48.5622647%" y1="22.3362456%" x2="40.8587776%" y2="125.452702%" id="linearGradient-7">
            <stop stop-color="#FFFFFF" stop-opacity="0" offset="0%"></stop>
            <stop stop-color="#FFFFFF" offset="95%"></stop>
        </linearGradient>
        <linearGradient x1="48.490208%" y1="22.3756826%" x2="40.6935477%" y2="125.434573%" id="linearGradient-8">
            <stop stop-color="#FFFFFF" stop-opacity="0" offset="0%"></stop>
            <stop stop-color="#FFFFFF" offset="66%"></stop>
        </linearGradient>
        <linearGradient x1="50.3479125%" y1="-1.57944601%" x2="42.5523131%" y2="101.528764%" id="linearGradient-9">
            <stop stop-color="#FFFFFF" stop-opacity="0" offset="0%"></stop>
            <stop stop-color="#FFFFFF" offset="95%"></stop>
        </linearGradient>
        <linearGradient x1="48.490208%" y1="22.3800761%" x2="40.6935477%" y2="125.459203%" id="linearGradient-10">
            <stop stop-color="#FFFFFF" stop-opacity="0" offset="0%"></stop>
            <stop stop-color="#FFFFFF" stop-opacity="0.67" offset="38%"></stop>
            <stop stop-color="#FFFFFF" offset="95%"></stop>
        </linearGradient>
        <linearGradient x1="48.5434848%" y1="22.3794576%" x2="40.7478854%" y2="125.468073%" id="linearGradient-11">
            <stop stop-color="#FFFFFF" stop-opacity="0" offset="0%"></stop>
            <stop stop-color="#FFFFFF" offset="58%"></stop>
        </linearGradient>
        <linearGradient x1="48.4845166%" y1="22.3762987%" x2="40.6889172%" y2="125.438027%" id="linearGradient-12">
            <stop stop-color="#FFFFFF" stop-opacity="0" offset="0%"></stop>
            <stop stop-color="#FFFFFF" offset="53%"></stop>
        </linearGradient>
        <linearGradient x1="43.1154588%" y1="8.17549504%" x2="70.364709%" y2="140.703039%" id="linearGradient-13">
            <stop stop-color="#010101" stop-opacity="0" offset="0%"></stop>
            <stop stop-color="#010101" offset="95%"></stop>
        </linearGradient>
        <linearGradient x1="90.2363623%" y1="52.987175%" x2="-93.6547963%" y2="39.2104671%" id="linearGradient-14">
            <stop stop-color="#FFFFFF" stop-opacity="0" offset="0%"></stop>
            <stop stop-color="#FFFFFF" offset="95%"></stop>
        </linearGradient>
        <linearGradient x1="43.1003865%" y1="8.15116466%" x2="70.3751233%" y2="140.703039%" id="linearGradient-15">
            <stop stop-color="#010101" stop-opacity="0" offset="0%"></stop>
            <stop stop-color="#010101" offset="95%"></stop>
        </linearGradient>
        <linearGradient x1="90.2513293%" y1="52.9555921%" x2="-93.6398293%" y2="39.1788842%" id="linearGradient-16">
            <stop stop-color="#FFFFFF" stop-opacity="0" offset="0%"></stop>
            <stop stop-color="#FFFFFF" offset="95%"></stop>
        </linearGradient>
        <linearGradient x1="43.135399%" y1="8.17549504%" x2="70.3751233%" y2="140.703039%" id="linearGradient-17">
            <stop stop-color="#010101" stop-opacity="0" offset="0%"></stop>
            <stop stop-color="#010101" offset="95%"></stop>
        </linearGradient>
        <linearGradient x1="90.2559219%" y1="52.992489%" x2="-93.6352376%" y2="39.2157811%" id="linearGradient-18">
            <stop stop-color="#FFFFFF" stop-opacity="0" offset="0%"></stop>
            <stop stop-color="#FFFFFF" offset="95%"></stop>
        </linearGradient>
        <linearGradient x1="43.1331867%" y1="8.17549488%" x2="70.371514%" y2="140.703039%" id="linearGradient-19">
            <stop stop-color="#010101" stop-opacity="0" offset="0%"></stop>
            <stop stop-color="#010101" offset="95%"></stop>
        </linearGradient>
        <linearGradient x1="92.3049511%" y1="57.4482289%" x2="-91.603309%" y2="45.1975477%" id="linearGradient-20">
            <stop stop-color="#FFFFFF" stop-opacity="0" offset="0%"></stop>
            <stop stop-color="#FFFFFF" offset="95%"></stop>
        </linearGradient>
        <linearGradient x1="43.1368489%" y1="8.17885802%" x2="70.3774889%" y2="140.705636%" id="linearGradient-21">
            <stop stop-color="#010101" stop-opacity="0" offset="0%"></stop>
            <stop stop-color="#010101" offset="95%"></stop>
        </linearGradient>
        <linearGradient x1="90.2453976%" y1="53.0269865%" x2="-93.6458968%" y2="39.204866%" id="linearGradient-22">
            <stop stop-color="#FFFFFF" stop-opacity="0" offset="0%"></stop>
            <stop stop-color="#FFFFFF" offset="95%"></stop>
        </linearGradient>
    </defs>
    <g id="pages" stroke="none" stroke-width="1" fill="none" fill-rule="evenodd">
        <g id="Solutions" transform="translate(-119.000000, -1641.000000)" fill-rule="nonzero">
            <g id="solution-2" transform="translate(0.000000, 1548.000000)">
                <g transform="translate(119.916724, 93.000000)" id="ethereum">
                    <g>
                        <path d="M267.396219,0.135967302 C194.033352,2.15877651 124.350017,30.0838291 56.5502527,57.5888916 C36.6895386,65.6544148 15.0766663,75.3141859 6.22826697,94.4880173 C-8.14819169,125.652993 19.3081285,160.52931 17.4683623,194.651358 C16.3119378,215.462294 4.28337128,234.276134 0.936748972,254.855646 C-4.985546,291.069073 17.8801195,327.505353 49.5591411,347.073461 C81.2381628,366.641568 120.013425,371.861445 157.457048,371.835731 C194.90067,371.810017 232.291728,367.00156 269.709068,368.407241 C311.997408,370.035774 354.583615,379.609833 396.232417,372.255721 C437.881219,364.90161 479.784084,332.999509 478.382358,291.617632 C477.506279,265.621105 459.984696,242.298801 458.915879,216.310845 C457.435306,179.711712 483.446095,148.898157 479.197111,111.330475 C476.358615,86.0882163 463.856966,54.9832391 443.023804,38.4750588 C402.943183,6.77866704 315.273944,-1.18400142 267.396219,0.135967302 Z" id="Path" fill="#1CAB68" opacity="0.24"></path>
                        <polygon id="Path" fill="#1CAB68" points="285.003597 268.685994 229.438202 237.35194 272.914642 212.837449 241.737401 195.253756 214.002884 210.895114 129.021031 162.969926 179.48804 134.51087 181.494106 135.640333 133.024403 162.978483 213.985364 208.636187 241.71988 192.99483 276.918013 212.846005 233.441574 237.360496 284.986077 266.427067 349.451746 230.07888 385.403248 250.349326 356.170752 266.837781 390.361472 286.124225 405.858111 277.387997 407.872937 278.51746 390.378992 288.383152 352.167381 266.829225 381.399877 250.349326 349.460506 232.337807"></polygon>
                        <polygon id="Path" fill="#1CAB68" points="360.095325 331.182065 290.692096 291.927259 335.636115 266.506406 273.700211 231.471255 230.988511 253.07555 167.984596 217.431465 196.820903 201.118893 167.739479 184.669097 146.641878 196.607635 144.628414 195.466956 167.721971 182.404891 200.821568 201.12747 171.985262 217.440042 231.084808 250.87138 273.796507 229.267085 339.63678 266.514982 294.692762 291.927259 362.091281 330.058539"></polygon>
                        <polygon id="Path" fill="#1CAB68" points="85.9453601 217.465586 50.9841171 197.798448 52.9819024 196.671196 85.9278356 215.211081 114.606569 199.070877 273.044964 288.22629 309.60093 267.662474 351.4668 291.223756 374.651624 278.174956 376.658172 279.310748 351.484324 293.478261 309.609693 269.916979 273.053726 290.480794 114.624094 201.325381"></polygon>
                        <polygon id="Path" fill="#1CAB68" points="147.674737 171.233888 145.668906 170.087367 174.206005 153.872283 222.284622 181.190519 247.58086 166.820213 333.997992 215.92235 332.000921 217.05163 247.598378 169.096014 222.30214 183.46632 174.223523 156.148084"></polygon>
                        <path d="M230.904603,229.917391 C231.04426,230.638471 231.04426,231.378398 230.904603,232.099477 C230.345468,233.791017 228.012826,234.129325 226.151954,234.163156 C215.537095,234.353829 204.987524,235.816877 194.744281,238.51887 C192.289328,239.161655 189.659645,240.007425 188.200652,242.037272 C186.741658,244.06712 187.388158,247.560149 189.878057,248.076068 C186.306834,248.495553 182.792231,249.283787 179.394272,250.427308 C178.485162,250.630643 177.683797,251.147838 177.140258,251.882032 C176.06567,253.759641 178.581779,255.645708 180.696009,256.296951 C189.161665,258.94421 198.168984,259.045702 207.106411,259.130279 C211.334871,259.130279 216.305932,258.842718 218.621102,255.408892 C219.34623,254.326307 219.748109,252.981533 220.770278,252.144221 C221.488559,251.633739 222.30563,251.268442 223.172812,251.070093 L236.592057,247.086518 C238.209315,246.507071 239.917397,246.200959 241.641747,246.181544 C243.633666,246.283036 245.485801,247.137264 247.337937,247.873084 C253.950241,250.421837 261.124954,251.295152 268.183196,250.410393 C269.851865,253.793472 271.677791,257.430282 274.96271,259.485503 C277.644812,261.177042 280.929731,261.566096 284.101076,261.938235 C291.090267,262.784005 298.201767,263.553655 305.068647,262.0651 C307.960424,261.439231 311.184188,259.916845 311.60354,257.075059 C312.066573,253.818845 308.571978,251.467605 305.549154,249.953677 L299.433612,246.866618 C298.276726,246.405224 297.268995,245.651637 296.515625,244.684532 C295.170206,242.578565 296.60299,239.770609 298.551227,238.155189 C300.113485,236.870252 301.975659,235.973232 303.976586,235.54176 C306.955728,234.898975 310.092127,235.338776 313.114952,235.21191 C316.137777,235.085045 319.483851,234.171613 321.15252,231.68505 C321.425011,231.340251 321.550129,230.907226 321.50198,230.475599 C321.353273,230.038534 321.041836,229.670705 320.628331,229.44376 C313.875026,224.868146 305.08612,224.529838 296.847612,224.369142 L258.913783,223.591033 C252.658458,223.464168 246.368186,223.523372 240.121598,223.210437 C235.29032,222.922875 230.537671,223.895511 230.904603,229.917391 Z" id="Path" fill="#1CAB68" opacity="0.24"></path>
                        <ellipse id="Oval" fill="#F29C5A" transform="translate(206.073739, 236.559356) rotate(-89.690000) translate(-206.073739, -236.559356) " cx="206.073739" cy="236.559356" rx="7.6797997" ry="13.5934711"></ellipse>
                        <ellipse id="Oval" fill="#FFC91F" transform="translate(206.073775, 234.149079) rotate(-89.690000) translate(-206.073775, -234.149079) " cx="206.073775" cy="234.149079" rx="7.6797997" ry="13.5934711"></ellipse>
                        <ellipse id="Oval" fill="#F29C5A" transform="translate(206.012175, 233.959703) rotate(-89.690000) translate(-206.012175, -233.959703) " cx="206.012175" cy="233.959703" rx="5.95890816" ry="10.5561662"></ellipse>
                        <ellipse id="Oval" fill="#F29C5A" transform="translate(202.624002, 231.919521) rotate(-89.690000) translate(-202.624002, -231.919521) " cx="202.624002" cy="231.919521" rx="7.6797997" ry="13.5934711"></ellipse>
                        <ellipse id="Oval" fill="#FFC91F" transform="translate(202.624038, 229.509244) rotate(-89.690000) translate(-202.624038, -229.509244) " cx="202.624038" cy="229.509244" rx="7.6797997" ry="13.5934711"></ellipse>
                        <ellipse id="Oval" fill="#F29C5A" transform="translate(202.562438, 229.319821) rotate(-89.690000) translate(-202.562438, -229.319821) " cx="202.562438" cy="229.319821" rx="5.95890816" ry="10.5561662"></ellipse>
                        <ellipse id="Oval" fill="#F29C5A" transform="translate(208.247712, 224.619814) rotate(-89.690000) translate(-208.247712, -224.619814) " cx="208.247712" cy="224.619814" rx="7.6797997" ry="13.5934711"></ellipse>
                        <ellipse id="Oval" fill="#FFC91F" transform="translate(208.238995, 222.218098) rotate(-89.690000) translate(-208.238995, -222.218098) " cx="208.238995" cy="222.218098" rx="7.6797997" ry="13.5934711"></ellipse>
                        <ellipse id="Oval" fill="#F29C5A" transform="translate(208.186148, 222.028722) rotate(-89.690000) translate(-208.186148, -222.028722) " cx="208.186148" cy="222.028722" rx="5.95890816" ry="10.5561662"></ellipse>
                        <ellipse id="Oval" fill="#F29C5A" transform="translate(310.674210, 228.082620) rotate(-89.427061) translate(-310.674210, -228.082620) " cx="310.67421" cy="228.08262" rx="7.68019626" ry="13.5941297"></ellipse>
                        <ellipse id="Oval" fill="#FFC91F" transform="translate(309.191328, 224.604043) rotate(-89.690000) translate(-309.191328, -224.604043) " cx="309.191328" cy="224.604043" rx="7.67979972" ry="13.5934711"></ellipse>
                        <ellipse id="Oval" fill="#F29C5A" transform="translate(309.129728, 224.414667) rotate(-89.690000) translate(-309.129728, -224.414667) " cx="309.129728" cy="224.414667" rx="5.95890814" ry="10.5561662"></ellipse>
                        <ellipse id="Oval" fill="#F29C5A" transform="translate(316.438616, 222.859418) rotate(-89.427061) translate(-316.438616, -222.859418) " cx="316.438616" cy="222.859418" rx="7.68019626" ry="13.5941297"></ellipse>
                        <ellipse id="Oval" fill="#FFC91F" transform="translate(314.929459, 219.413336) rotate(-89.690000) translate(-314.929459, -219.413336) " cx="314.929459" cy="219.413336" rx="7.67979972" ry="13.5934711"></ellipse>
                        <ellipse id="Oval" fill="#F29C5A" transform="translate(314.876612, 219.223960) rotate(-89.690000) translate(-314.876612, -219.223960) " cx="314.876612" cy="219.22396" rx="5.95890814" ry="10.5561662"></ellipse>
                        <ellipse id="Oval" fill="#F29C5A" transform="translate(311.434500, 214.488442) rotate(-89.427061) translate(-311.434500, -214.488442) " cx="311.4345" cy="214.488442" rx="7.68019626" ry="13.5941297"></ellipse>
                        <ellipse id="Oval" fill="#FFC91F" transform="translate(309.948365, 211.080521) rotate(-89.690000) translate(-309.948365, -211.080521) " cx="309.948365" cy="211.080521" rx="7.67979972" ry="13.5934711"></ellipse>
                        <ellipse id="Oval" fill="#F29C5A" transform="translate(309.886765, 210.891145) rotate(-89.690000) translate(-309.886765, -210.891145) " cx="309.886765" cy="210.891145" rx="5.95890814" ry="10.5561662"></ellipse>
                        <ellipse id="Oval" fill="#F29C5A" transform="translate(218.052146, 194.344809) rotate(-89.690000) translate(-218.052146, -194.344809) " cx="218.052146" cy="194.344809" rx="7.67979971" ry="13.5934711"></ellipse>
                        <ellipse id="Oval" fill="#FFC91F" transform="translate(218.060935, 191.943140) rotate(-89.690000) translate(-218.060935, -191.943140) " cx="218.060935" cy="191.94314" rx="7.67979971" ry="13.5934711"></ellipse>
                        <ellipse id="Oval" fill="#F29C5A" transform="translate(217.999335, 191.753718) rotate(-89.690000) translate(-217.999335, -191.753718) " cx="217.999335" cy="191.753718" rx="5.95890814" ry="10.5561662"></ellipse>
                        <ellipse id="Oval" fill="#F29C5A" transform="translate(288.834974, 254.766947) rotate(-89.690000) translate(-288.834974, -254.766947) " cx="288.834974" cy="254.766947" rx="7.67979972" ry="13.5934711"></ellipse>
                        <ellipse id="Oval" fill="#FFC91F" transform="translate(288.843763, 252.365278) rotate(-89.690000) translate(-288.843763, -252.365278) " cx="288.843763" cy="252.365278" rx="7.67979972" ry="13.5934711"></ellipse>
                        <ellipse id="Oval" fill="#F29C5A" transform="translate(288.782163, 252.175855) rotate(-89.690000) translate(-288.782163, -252.175855) " cx="288.782163" cy="252.175855" rx="5.95890814" ry="10.5561662"></ellipse>
                        <path d="M281.396712,237.073245 C270.866349,243.015047 253.735783,242.980602 243.134924,237.004354 C237.847712,234.01623 235.204106,230.115308 235.151234,226.197163 C235.151234,224.724629 235.574211,204.134991 235.424407,204.841119 C234.895686,207.424511 239.724672,217.267236 243.011555,215.415805 C253.541919,209.474002 270.672484,209.499836 281.273343,215.484695 C283.916949,216.991674 287.794238,204.186659 289.124853,206.012256 C289.124853,206.012256 288.878116,223.34682 289.124853,224.793519 C289.891498,229.21112 287.318389,233.723446 281.396712,237.073245 Z" id="Path" fill="#1CAB68"></path>
                        <path d="M281.396712,237.073245 C270.866349,243.015047 253.735783,242.980602 243.134924,237.004354 C237.847712,234.01623 235.204106,230.115308 235.151234,226.197163 C235.151234,224.724629 235.574211,204.134991 235.424407,204.841119 C234.895686,207.424511 239.724672,217.267236 243.011555,215.415805 C253.541919,209.474002 270.672484,209.499836 281.273343,215.484695 C283.916949,216.991674 287.794238,204.186659 289.124853,206.012256 C289.124853,206.012256 288.878116,223.34682 289.124853,224.793519 C289.891498,229.21112 287.318389,233.723446 281.396712,237.073245 Z" id="Path" fill="url(#linearGradient-1)"></path>
                        <ellipse id="Oval" fill="#1CAB68" transform="translate(262.284018, 206.999570) rotate(-89.690000) translate(-262.284018, -206.999570) " cx="262.284018" cy="206.99957" rx="15.1798048" ry="26.8718327"></ellipse>
                        <path d="M289.240876,218.186993 C289.487744,222.109326 286.869188,226.089829 281.385209,229.081439 C270.805185,234.807049 253.709629,234.773809 243.103155,229.023269 C237.557459,226.006729 234.912453,222.026226 235.168137,218.070652 C235.503171,221.619034 238.156994,225.100936 243.103155,227.776765 C253.683179,233.593785 270.840451,233.593785 281.385209,227.859865 C286.287286,225.159106 288.932292,221.702134 289.240876,218.186993 Z" id="Path" fill="#1CAB68"></path>
                        <ellipse id="Oval" fill="url(#linearGradient-2)" transform="translate(262.451229, 206.784327) rotate(-89.690000) translate(-262.451229, -206.784327) " cx="262.451229" cy="206.784327" rx="11.703775" ry="20.7271987"></ellipse>
                        <polygon id="Path" fill="#1CAB68" points="263.244523 100.883152 235.151234 150.815217 250.392773 150.815217"></polygon>
                        <polygon id="Path" fill="#1CAB68" points="262.204031 199.728261 235.151234 150.815217 250.096668 150.815217"></polygon>
                        <polygon id="Path" fill="#1CAB68" points="290.29732 150.815217 262.591402 100.883152 249.718125 150.602051"></polygon>
                        <polygon id="Path" fill="#1CAB68" points="262.086046 199.728261 290.29732 151.028513 249.718125 150.815217"></polygon>
                        <polygon id="Path" fill="url(#linearGradient-3)" points="263.244523 100.883152 235.151234 150.815217 250.392773 150.815217"></polygon>
                        <polygon id="Path" fill="url(#linearGradient-4)" points="262.204031 199.728261 235.151234 150.815217 250.096668 150.815217"></polygon>
                        <polygon id="Path" fill="url(#linearGradient-5)" points="290.29732 150.815217 262.591402 100.883152 249.718125 150.602051"></polygon>
                        <polygon id="Path" fill="url(#linearGradient-6)" points="262.086046 199.728261 290.29732 151.028513 249.718125 150.815217"></polygon>
                        <path d="M235.327838,205.754183 L189.369578,79.5742768 L329.836023,70.3125 L288.491976,213.084634 C288.491976,213.084634 252.856594,237.719759 235.327838,205.754183 Z" id="Path" fill="url(#linearGradient-7)"></path>
                        <path d="M391.48561,272.760466 L370.415218,215.211174 L434.925734,210.9375 L415.892147,276.093932 C415.892147,276.093932 399.536255,287.333694 391.48561,272.760466 Z" id="Path" fill="url(#linearGradient-8)"></path>
                        <path d="M343.663993,318.612976 L322.552578,261.068686 L387.063093,256.793478 L368.067209,321.939088 C368.067209,321.939088 351.704765,333.199984 343.663993,318.612976 Z" id="Path" fill="url(#linearGradient-9)"></path>
                        <path d="M131.362563,188.185252 L110.292172,130.633209 L174.802687,126.358696 L155.804218,191.493725 C155.804218,191.493725 139.421988,202.76989 131.362563,188.185252 Z" id="Path" fill="url(#linearGradient-10)"></path>
                        <path d="M170.94229,128.069809 L149.830875,70.5108079 L214.34139,66.236413 L195.345506,131.369642 C195.345506,131.369642 178.983062,142.645496 170.94229,128.069809 Z" id="Path" fill="url(#linearGradient-11)"></path>
                        <path d="M37.7153995,189.193838 L16.647875,131.651509 L81.1583905,127.377717 L62.1186153,192.535943 C62.1186153,192.535943 45.7561713,203.776015 37.7153995,189.193838 Z" id="Path" fill="url(#linearGradient-12)"></path>
                        <path d="M413.615305,288.319214 C408.752355,291.130607 400.836941,291.113091 395.947752,288.319214 C393.498784,286.909139 392.274301,285.052393 392.265554,283.204406 C392.265554,282.512505 392.457973,272.773349 392.388003,273.106162 C392.143106,274.332315 394.373416,278.982937 395.886528,278.107114 C400.749478,275.295721 408.656145,275.313237 413.545334,278.107114 C414.778564,278.816531 416.554066,272.764591 417.175054,273.640415 C417.175054,273.640415 417.052606,281.838121 417.175054,282.521264 C417.533653,284.596965 416.344154,286.733974 413.615305,288.319214 Z" id="Path" fill="#1CAB68"></path>
                        <path d="M413.615305,288.319214 C408.752355,291.130607 400.836941,291.113091 395.947752,288.319214 C393.498784,286.909139 392.274301,285.052393 392.265554,283.204406 C392.265554,282.512505 392.457973,272.773349 392.388003,273.106162 C392.143106,274.332315 394.373416,278.982937 395.886528,278.107114 C400.749478,275.295721 408.656145,275.313237 413.545334,278.107114 C414.778564,278.816531 416.554066,272.764591 417.175054,273.640415 C417.175054,273.640415 417.052606,281.838121 417.175054,282.521264 C417.533653,284.596965 416.344154,286.733974 413.615305,288.319214 Z" id="Path" fill="url(#linearGradient-13)"></path>
                        <ellipse id="Oval" fill="#1CAB68" transform="translate(404.589766, 273.663693) rotate(-89.690000) translate(-404.589766, -273.663693) " cx="404.589766" cy="273.663693" rx="7.06336095" ry="12.4993411"></ellipse>
                        <path d="M417.230027,279.237066 C417.343708,281.078418 416.136946,282.93651 413.600998,284.342633 C408.738973,287.020964 400.83381,287.004224 395.945551,284.342633 C393.383369,282.91977 392.159118,281.061678 392.272799,279.211957 C392.430202,280.885913 393.654453,282.501281 395.945551,283.756748 C400.83381,286.460188 408.738973,286.476928 413.600998,283.756748 C415.892096,282.501281 417.090113,280.885913 417.230027,279.237066 Z" id="Path" fill="#1CAB68"></path>
                        <ellipse id="Oval" fill="url(#linearGradient-14)" transform="translate(404.668971, 273.560398) rotate(-89.690000) translate(-404.668971, -273.560398) " cx="404.668971" cy="273.560398" rx="5.44520916" ry="9.63709702"></ellipse>
                        <path d="M363.664216,334.175193 C358.802966,336.986586 350.899063,336.969069 346.00284,334.175193 C343.563472,332.756359 342.330673,330.908371 342.321929,329.060384 C342.321929,328.368484 342.514281,318.629328 342.453078,318.962141 C342.208267,320.188293 344.437797,324.838915 345.95038,323.963092 C350.811631,321.151699 358.715534,321.169216 363.611757,323.963092 C364.844556,324.672509 366.619437,318.611811 367.231465,319.496393 C367.231465,319.496393 367.117802,327.6941 367.231465,328.377242 C367.589938,330.452943 366.400855,332.589952 363.664216,334.175193 Z" id="Path" fill="#1CAB68"></path>
                        <path d="M363.664216,334.175193 C358.802966,336.986586 350.899063,336.969069 346.00284,334.175193 C343.563472,332.756359 342.330673,330.908371 342.321929,329.060384 C342.321929,328.368484 342.514281,318.629328 342.453078,318.962141 C342.208267,320.188293 344.437797,324.838915 345.95038,323.963092 C350.811631,321.151699 358.715534,321.169216 363.611757,323.963092 C364.844556,324.672509 366.619437,318.611811 367.231465,319.496393 C367.231465,319.496393 367.117802,327.6941 367.231465,328.377242 C367.589938,330.452943 366.400855,332.589952 363.664216,334.175193 Z" id="Path" fill="url(#linearGradient-15)"></path>
                        <ellipse id="Oval" fill="#1CAB68" transform="translate(355.278943, 319.914888) rotate(-89.690000) translate(-355.278943, -319.914888) " cx="355.278943" cy="319.914888" rx="7.06336095" ry="12.4993411"></ellipse>
                        <path d="M367.286399,325.093044 C367.400119,326.926027 366.192935,328.792488 363.664846,330.198612 C358.801118,332.876942 350.893187,332.860202 345.994468,330.198612 C343.440136,328.784118 342.215457,326.926027 342.329177,325.067935 C342.486636,326.741891 343.711315,328.365629 345.994468,329.621097 C350.893187,332.324536 358.801118,332.341276 363.664846,329.621097 C365.921756,328.357259 367.120192,326.741891 367.286399,325.093044 Z" id="Path" fill="#1CAB68"></path>
                        <ellipse id="Oval" fill="url(#linearGradient-16)" transform="translate(355.358148, 319.811593) rotate(-89.690000) translate(-355.358148, -319.811593) " cx="355.358148" cy="319.811593" rx="5.44520916" ry="9.63709702"></ellipse>
                        <path d="M193.023498,138.523019 C188.162248,141.334412 180.258345,141.316895 175.370865,138.523019 C172.922753,137.112943 171.689954,135.256198 171.681211,133.40821 C171.681211,132.71631 171.882306,122.977154 171.81236,123.309967 C171.567548,124.536119 173.797079,129.186742 175.309662,128.310918 C180.170912,125.499525 188.074815,125.517042 192.971038,128.310918 C194.203837,129.020335 195.978718,122.968396 196.590746,123.844219 C196.590746,123.844219 196.477084,132.041926 196.590746,132.725068 C196.94922,134.800769 195.760137,136.937778 193.023498,138.523019 Z" id="Path" fill="#1CAB68"></path>
                        <path d="M193.023498,138.523019 C188.162248,141.334412 180.258345,141.316895 175.370865,138.523019 C172.922753,137.112943 171.689954,135.256198 171.681211,133.40821 C171.681211,132.71631 171.882306,122.977154 171.81236,123.309967 C171.567548,124.536119 173.797079,129.186742 175.309662,128.310918 C180.170912,125.499525 188.074815,125.517042 192.971038,128.310918 C194.203837,129.020335 195.978718,122.968396 196.590746,123.844219 C196.590746,123.844219 196.477084,132.041926 196.590746,132.725068 C196.94922,134.800769 195.760137,136.937778 193.023498,138.523019 Z" id="Path" fill="url(#linearGradient-17)"></path>
                        <ellipse id="Oval" fill="#1CAB68" transform="translate(184.637016, 124.531684) rotate(-89.690000) translate(-184.637016, -124.531684) " cx="184.637016" cy="124.531684" rx="7.06336092" ry="12.4993411"></ellipse>
                        <path d="M196.64568,129.44087 C196.759401,131.282222 195.552216,133.140314 193.024128,134.546438 C188.1604,137.224768 180.252468,137.208029 175.35375,134.546438 C172.799418,133.123575 171.574738,131.265483 171.688458,129.415761 C171.845917,131.089717 173.070597,132.705085 175.35375,133.960553 C180.252468,136.663993 188.1604,136.680732 193.024128,134.002402 C195.281037,132.705085 196.505717,131.089717 196.64568,129.44087 Z" id="Path" fill="#1CAB68"></path>
                        <ellipse id="Oval" fill="url(#linearGradient-18)" transform="translate(184.716221, 124.428389) rotate(-89.690000) translate(-184.716221, -124.428389) " cx="184.716221" cy="124.428389" rx="5.44520918" ry="9.63709702"></ellipse>
                        <path d="M153.492443,201.702367 C148.631442,204.51376 140.719202,204.496243 135.831972,201.702367 C133.383986,200.292291 132.159993,198.444304 132.142508,196.596316 C132.142508,195.895658 132.343592,186.156502 132.27365,186.489315 C132.028851,187.715467 134.258267,192.374848 135.770773,191.490266 C140.631773,188.678873 148.535271,188.696389 153.4225,191.490266 C154.655236,192.199683 156.430026,186.147743 157.050765,187.023567 C157.050765,187.023567 156.928366,195.230032 157.050765,195.913174 C157.409221,197.980117 156.25517,200.125885 153.492443,201.702367 Z" id="Path" fill="#1CAB68"></path>
                        <path d="M153.492443,201.702367 C148.631442,204.51376 140.719202,204.496243 135.831972,201.702367 C133.383986,200.292291 132.159993,198.444304 132.142508,196.596316 C132.142508,195.895658 132.343592,186.156502 132.27365,186.489315 C132.028851,187.715467 134.258267,192.374848 135.770773,191.490266 C140.631773,188.678873 148.535271,188.696389 153.4225,191.490266 C154.655236,192.199683 156.430026,186.147743 157.050765,187.023567 C157.050765,187.023567 156.928366,195.230032 157.050765,195.913174 C157.409221,197.980117 156.25517,200.125885 153.492443,201.702367 Z" id="Path" fill="url(#linearGradient-19)"></path>
                        <ellipse id="Oval" fill="#1CAB68" transform="translate(144.144275, 187.724040) rotate(-89.690000) translate(-144.144275, -187.724040) " cx="144.144275" cy="187.72404" rx="7.06336095" ry="12.4993411"></ellipse>
                        <path d="M157.106981,192.620207 C157.220661,194.46075 156.013899,196.326392 153.477951,197.723532 C148.615926,200.400685 140.710764,200.392319 135.822505,197.723532 C133.260322,196.30966 132.036072,194.444018 132.149752,192.595109 C132.307156,194.26833 133.531407,195.882988 135.822505,197.137904 C140.710764,199.848522 148.615926,199.856889 153.477951,197.179735 C155.725326,195.891354 156.940832,194.26833 157.106981,192.620207 Z" id="Path" fill="#1CAB68"></path>
                        <ellipse id="Oval" fill="url(#linearGradient-20)" transform="translate(144.223480, 187.620745) rotate(-89.690000) translate(-144.223480, -187.620745) " cx="144.22348" cy="187.620745" rx="5.44520915" ry="9.63709702"></ellipse>
                        <path d="M59.8412153,204.75655 C54.9885453,207.567411 47.075633,207.558654 42.1879888,204.75655 C39.7397949,203.337985 38.515698,201.490347 38.4982109,199.64271 C38.4982109,198.95094 38.6993125,189.213628 38.6293641,189.546378 C38.3845448,190.772299 40.6141499,195.42204 42.126784,194.546383 C46.9881975,191.735522 54.9011098,191.744279 59.788754,194.546383 C61.0215945,195.264422 62.796535,189.204872 63.4173271,190.089286 C63.4173271,190.089286 63.2949174,198.285441 63.4173271,198.968453 C63.7408384,201.043762 62.5779463,203.180366 59.8412153,204.75655 Z" id="Path" fill="#1CAB68"></path>
                        <path d="M59.8412153,204.75655 C54.9885453,207.567411 47.075633,207.558654 42.1879888,204.75655 C39.7397949,203.337985 38.515698,201.490347 38.4982109,199.64271 C38.4982109,198.95094 38.6993125,189.213628 38.6293641,189.546378 C38.3845448,190.772299 40.6141499,195.42204 42.126784,194.546383 C46.9881975,191.735522 54.9011098,191.744279 59.788754,194.546383 C61.0215945,195.264422 62.796535,189.204872 63.4173271,190.089286 C63.4173271,190.089286 63.2949174,198.285441 63.4173271,198.968453 C63.7408384,201.043762 62.5779463,203.180366 59.8412153,204.75655 Z" id="Path" fill="url(#linearGradient-21)"></path>
                        <ellipse id="Oval" fill="#1CAB68" transform="translate(51.112373, 190.253542) rotate(-89.690000) translate(-51.112373, -190.253542) " cx="51.1123735" cy="190.253542" rx="7.06336095" ry="12.4993411"></ellipse>
                        <path d="M63.46273,195.685624 C63.5764106,197.516994 62.3609022,199.381815 59.8336939,200.77834 C54.97166,203.462677 47.0664826,203.445953 42.1782147,200.77834 C39.6160277,199.36509 38.3917746,197.50027 38.5054553,195.652174 C38.6628592,197.324659 39.8871124,198.946969 42.1782147,200.19297 C47.0664826,202.902395 54.97166,202.910758 59.8336939,200.234782 C62.0985622,198.946969 63.3140707,197.324659 63.46273,195.685624 Z" id="Path" fill="#1CAB68"></path>
                        <ellipse id="Oval" fill="url(#linearGradient-22)" transform="translate(51.182873, 190.141640) rotate(-89.690000) translate(-51.182873, -190.141640) " cx="51.1828731" cy="190.14164" rx="5.44520916" ry="9.63709702"></ellipse>
                    </g>
                </g>
            </g>
        </g>
    </g>
</svg>