<?xml version="1.0" encoding="UTF-8"?>
<svg width="482px" height="375px" viewBox="0 0 482 375" version="1.1" xmlns="http://www.w3.org/2000/svg" xmlns:xlink="http://www.w3.org/1999/xlink">
    <title>online_protection</title>
    <defs>
        <linearGradient x1="131.101811%" y1="-4.77823169%" x2="54.7067554%" y2="47.3227313%" id="linearGradient-1">
            <stop stop-color="#000000" offset="0%"></stop>
            <stop stop-color="#000000" stop-opacity="0" offset="100%"></stop>
        </linearGradient>
        <linearGradient x1="-10.9567788%" y1="85.3844244%" x2="64.721615%" y2="46.8757759%" id="linearGradient-2">
            <stop stop-color="#000000" offset="0%"></stop>
            <stop stop-color="#000000" stop-opacity="0" offset="100%"></stop>
        </linearGradient>
        <linearGradient x1="-126.110623%" y1="180.4811%" x2="99.8454512%" y2="13.0584192%" id="linearGradient-3">
            <stop stop-color="#000000" offset="0%"></stop>
            <stop stop-color="#000000" stop-opacity="0" offset="100%"></stop>
        </linearGradient>
        <linearGradient x1="-64.3328852%" y1="102.43309%" x2="84.0327729%" y2="34.5498783%" id="linearGradient-4">
            <stop stop-color="#000000" offset="0%"></stop>
            <stop stop-color="#000000" stop-opacity="0" offset="100%"></stop>
        </linearGradient>
        <linearGradient x1="-58.4259656%" y1="151.536643%" x2="71.5550494%" y2="29.787234%" id="linearGradient-5">
            <stop stop-color="#000000" offset="0%"></stop>
            <stop stop-color="#000000" stop-opacity="0" offset="100%"></stop>
        </linearGradient>
        <linearGradient x1="-58.263286%" y1="151.77305%" x2="71.717729%" y2="29.787234%" id="linearGradient-6">
            <stop stop-color="#000000" offset="0%"></stop>
            <stop stop-color="#000000" stop-opacity="0" offset="100%"></stop>
        </linearGradient>
    </defs>
    <g id="pages" stroke="none" stroke-width="1" fill="none" fill-rule="evenodd">
        <g id="Solutions" transform="translate(-839.000000, -2202.000000)">
            <g id="solution-3" transform="translate(0.000000, 2108.000000)">
                <g transform="translate(119.916724, 94.000000)" id="online_protection">
                    <g transform="translate(720.083276, 0.000000)">
                        <path d="M219.446738,3.72922426 C232.490101,5.85446883 245.181793,9.92598373 257.141777,15.8218526 C273.727594,24.2181835 287.418433,37.1074277 303.009101,47.1447872 C329.576564,64.240163 361.391177,73.9110793 391.592443,80.6026523 C403.654855,83.2952138 415.868048,85.7965875 426.724219,91.8668002 C443.310036,101.171273 455.191513,118.043596 463.454265,135.935588 C481.547884,175.208749 484.849969,222.846376 468.746649,263.155137 C453.0052,302.332704 417.044133,335.424125 376.182711,339.630257 C324.615897,345.2225 273.064162,355.897152 221.40688,362.652455 C185.536281,368.26063 149.514901,373.805076 113.252274,374.298978 C98.1742582,374.474234 82.7042142,373.69355 68.3348653,368.547412 C41.3753733,358.844631 17.024378,338.849573 6.4697671,310.298862 C-2.09760207,286.906828 -1.35261045,260.848722 8.53545524,238.045806 C14.5666615,224.200623 23.9451872,211.980536 28.3328898,197.450263 C32.2984079,184.322034 31.8611454,170.460918 31.2580248,156.870652 C30.5041686,144.216447 32.0131547,131.52544 35.7060394,119.461573 C42.8530188,94.7824141 54.1162965,71.1866531 70.023603,51.558039 C89.6250234,27.261256 116.614671,9.06655035 146.33344,3.20345781 C157.83274,1.15938658 169.491555,0.289719953 181.148578,0.606490189 C193.971737,0.602358638 206.775986,1.64638439 219.446738,3.72922426 Z" id="Path" fill="#1CAB68" fill-rule="nonzero" opacity="0.18"></path>
                        <path d="M138.839666,273.527075 C138.790632,275.123256 139.073721,276.711359 139.668957,278.179311 C140.40318,279.560096 141.518232,280.671633 142.865497,281.365775 C145.754109,282.943324 149.105043,283.291132 152.228944,282.337646 C152.65468,282.248192 153.038146,282.006202 153.314561,281.652557 C153.464948,281.349053 153.527852,281.00563 153.495498,280.664753 C153.262944,278.844953 152.390974,277.184205 151.052859,276.012516 C149.716291,274.865175 148.574174,273.485944 147.675384,271.933843 C146.167582,268.874839 147.313511,260.781222 141.85527,262.023942 C137.301709,263.027678 138.719042,270.069762 138.839666,273.527075 Z" id="Path" fill="#FFBAA8" fill-rule="nonzero"></path>
                        <path d="M138.085766,278.99186 C138.085766,278.99186 137.316787,280.999332 138.266702,282.178323 C139.216617,283.357314 149.017327,289.79397 155.621498,284.615967 C162.225669,279.437965 146.665157,278.752875 146.665157,278.752875 L138.085766,278.99186 Z" id="Path" fill="#1CAB68" fill-rule="nonzero"></path>
                        <path d="M138.477794,274.291826 C139.100645,273.974274 139.849592,274.183956 140.241922,274.785728 C141.561112,276.338618 143.542696,277.066655 145.489071,276.713538 C147.63015,276.17184 148.504674,273.527075 149.560136,273.527075 C150.615597,273.527075 156.345243,278.657281 156.661881,280.855941 C156.978519,283.0546 154.068462,284.679697 150.841767,284.886817 C147.615072,285.093937 140.287156,282.751886 138.945213,280.951535 C137.768389,278.945876 137.593843,276.458976 138.477794,274.291826 L138.477794,274.291826 Z" id="Path" fill="#FFFFFF" fill-rule="nonzero"></path>
                        <path d="M120.127849,276.617944 C120.078814,278.214125 120.361904,279.802228 120.95714,281.270181 C121.693025,282.655275 122.814247,283.767715 124.168757,284.456644 C127.051791,286.034786 130.398304,286.382695 133.517127,285.428516 C133.962405,285.329419 134.35872,285.063444 134.6329,284.679697 C134.783286,284.376193 134.846191,284.03277 134.813836,283.691893 C134.581282,281.872093 133.709313,280.211345 132.371198,279.039657 C131.034629,277.892315 129.892513,276.513084 128.993722,274.960984 C127.561311,271.901979 128.63185,263.808362 123.173608,265.067015 C118.589891,266.182277 120.007225,273.224361 120.127849,276.617944 Z" id="Path" fill="#FFBAA8" fill-rule="nonzero"></path>
                        <path d="M119.373948,282.146458 C119.373948,282.146458 118.604969,284.15393 119.554884,285.332922 C120.504799,286.511913 130.30551,292.948569 136.90968,287.770566 C143.513851,282.592563 127.953339,281.907474 127.953339,281.907474 L119.373948,282.146458 Z" id="Path" fill="#1CAB68" fill-rule="nonzero"></path>
                        <path d="M119.765977,277.462357 C120.384526,277.134383 121.137226,277.338318 121.530104,277.940327 C122.844632,279.502314 124.825777,280.242221 126.777254,279.900002 C128.918332,279.358303 129.792857,276.713538 130.863396,276.713538 C131.933935,276.713538 137.633425,281.843744 137.950063,284.042404 C138.266702,286.241064 135.356645,287.86616 132.129949,288.07328 C128.903254,288.2804 121.575339,285.93835 120.233395,284.137998 C119.04629,282.130042 118.871454,279.63305 119.765977,277.462357 L119.765977,277.462357 Z" id="Path" fill="#FFFFFF" fill-rule="nonzero"></path>
                        <path d="M116.237721,191.507509 C116.237721,191.507509 115.212416,250.72793 119.35887,270.484003 L129.913481,271.854182 L137.211241,190.774622 L116.237721,191.507509 Z" id="Path" fill="#473F47" fill-rule="nonzero"></path>
                        <path d="M148.776079,185.038988 C148.776079,185.038988 153.736746,216.903622 147.720618,268.285343 L137.166007,269.671454 L129.868247,188.575962 L148.776079,185.038988 Z" id="Path" fill="#473F47" fill-rule="nonzero"></path>
                        <path d="M147.811086,160.057116 C147.811086,161.124581 147.946788,162.207978 147.946788,163.243579 C147.946788,169.154468 146.650079,175.240613 148.323738,181.039977 C148.863765,182.274083 149.02204,183.656619 148.776079,184.991191 C148.301369,186.060422 147.468828,186.906081 146.438986,187.365106 C141.508475,190.216991 135.884375,191.093268 130.245198,191.921749 C126.068587,192.543109 120.127849,193.849559 116.267877,191.475644 C114.797519,190.322228 113.812584,188.606723 113.523678,186.695949 C112.044802,180.594734 111.170598,174.347509 110.915181,168.055139 C110.915181,167.226658 110.809635,166.461907 110.764401,165.601562 C110.447763,159.929657 110.327139,154.273685 110.432685,148.617712 C110.432685,144.507174 110.824713,140.062058 113.35782,136.955256 C116.735295,132.828786 123.264076,130.088428 128.224743,129.132489 C129.837449,128.793387 131.48867,128.70749 133.125098,128.877572 C135.437439,129.269648 137.670339,130.072279 139.729269,131.251487 C142.202064,132.542005 144.388376,133.625402 145.594617,136.190505 C146.924417,139.167118 147.853194,142.325834 148.353894,145.57464 C148.79618,148.617756 148.8469,151.710103 148.504674,154.767586 C148.353894,156.265224 147.992022,157.74693 147.85632,159.244567 C147.826164,159.515417 147.826164,159.786266 147.811086,160.057116 Z" id="Path" fill="#FFFFFF" fill-rule="nonzero"></path>
                        <path d="M143.136901,133.322688 L157.898278,141.639357 L189.139927,129.913172 L194.568012,144.029205 C194.568012,144.029205 165.919783,159.515417 160.386151,159.579146 C154.852519,159.642875 140.302234,155.388947 140.302234,155.388947 L143.136901,133.322688 Z" id="Path" fill="#FFFFFF" fill-rule="nonzero"></path>
                        <path d="M156.088916,150.561455 C154.415257,150.354335 146.046958,145.957015 145.127199,145.224129 C146.40883,148.076013 148.142802,156.934382 148.429284,157.109637 C151.584465,158.773664 155.015348,159.774672 158.531555,160.057116 C162.058948,160.331569 165.593064,159.628632 168.784605,158.017779 C170.352117,157.050319 171.967805,156.17277 173.624649,155.388947 C174.619798,154.990639 175.660181,154.767586 176.640252,154.417075 C179.247695,153.374061 181.700194,151.941518 183.922933,150.163147 C184.65481,149.782413 185.201843,149.09456 185.430735,148.267201 C185.581515,147.215668 184.691912,146.323459 183.787231,145.861421 C182.361176,145.200462 180.821037,144.858708 179.263826,144.857685 C177.218063,144.578262 175.144109,144.626603 173.111996,145.001076 C171.830365,145.383452 170.88045,146.594308 169.628974,147.247533 C166.010251,148.920426 160.0092,151.039424 156.088916,150.561455 Z" id="Path" fill="#020202" fill-rule="nonzero" opacity="0.1"></path>
                        <path d="M124.998048,193.530913 C123.369622,194.024815 119.630274,192.463448 118.393877,192.224463 C117.639976,192.097004 116.886076,191.698697 116.237721,191.507509 C112.528529,190.535637 112.091267,179.542339 111.714316,176.578928 C110.749323,168.75616 109.271678,160.646611 109.18121,152.807911 C109.020018,149.785969 109.351533,146.757232 110.161281,143.85395 C111.009943,140.913989 113.047209,138.522107 115.725068,137.3217 C116.243829,137.090262 116.81651,137.029194 117.368572,137.146444 C119.615196,137.751872 120.082615,141.687154 120.474643,143.519371 C121.153154,146.865157 122.691112,148.39466 124.259225,151.071289 C125.827339,153.747918 125.932885,157.093705 127.425609,159.849995 C127.794373,160.620137 128.307345,161.303102 128.93341,161.857467 C130.208007,162.643483 131.688871,162.973202 133.155255,162.797474 L143.800334,162.797474 C144.656972,162.672126 145.526379,162.900367 146.227894,163.434767 C146.850514,164.296062 147.082201,165.403554 146.861171,166.461907 L146.212816,174.778576 C146.223285,175.142626 146.134296,175.502158 145.95649,175.814177 C145.650887,176.145322 145.245731,176.353745 144.810561,176.403673 C141.894685,176.847897 139.061577,177.766946 136.412106,179.128099 C133.839621,180.99499 131.10288,182.595618 128.239821,183.907794 C127.414574,184.298893 126.65959,184.837921 126.008275,185.501025 C125.247561,186.504497 124.866114,187.770441 124.937736,189.053932 C124.937736,189.86648 125.917807,192.367854 125.631325,192.95735 C125.502297,193.23114 125.273843,193.438053 124.998048,193.530913 Z" id="Path" fill="#020202" fill-rule="nonzero" opacity="0.1"></path>
                        <path d="M136.38195,124.2572 C135.792333,124.946503 134.980376,125.378325 134.10517,125.468056 C133.372934,125.539585 132.636015,125.539585 131.903779,125.468056 L131.496673,125.468056 C131.398573,125.435095 131.293213,125.435095 131.195112,125.468056 C131.10456,125.559038 131.05517,125.686609 131.05941,125.818567 C130.931168,127.366352 130.931168,128.923018 131.05941,130.470803 L131.05941,130.470803 C131.05941,130.757585 131.05941,131.028435 131.05941,131.315216 C131.136923,131.601567 131.136923,131.905143 131.05941,132.191494 C130.849081,132.508318 130.529788,132.725615 130.169807,132.796922 C129.52851,133.027955 128.856964,133.151597 128.179509,133.163365 C126.720716,133.053969 125.310928,132.561065 124.078289,131.729457 C124.184575,129.066954 124.053319,126.399792 123.686261,123.763298 C123.218842,120.369715 122.374473,116.976131 122.721268,113.566615 C122.811344,112.232783 123.284804,110.959835 124.078289,109.918115 C125.360896,108.632774 127.094464,107.974022 128.85802,108.101831 C131.169896,108.066729 133.443925,108.724066 135.416957,109.997777 C136.140702,110.523543 136.216092,111.1927 136.38195,112.053045 C136.638276,113.39136 136.83429,114.745607 136.98507,116.099854 C137.135851,117.454101 137.226319,119.190723 137.256475,120.75209 C137.370078,121.993291 137.059896,123.236504 136.38195,124.2572 L136.38195,124.2572 Z" id="Path" fill="#FFBAA8" fill-rule="nonzero"></path>
                        <path d="M133.818687,110.762528 C132.310886,111.1927 130.365822,110.762528 128.842942,111.46355 C126.683783,112.632386 125.667994,115.302155 126.460616,117.72495 C125.842417,117.963935 125.721793,116.769011 125.239296,116.291042 C124.7568,115.813072 123.731495,116.450365 123.595793,117.278845 C123.637874,118.111309 123.870722,118.920508 124.274303,119.636828 C124.869602,121.101382 124.975941,122.736292 124.575864,124.273132 C124.470318,124.639576 124.213991,125.069748 123.882275,124.974154 C123.550559,124.87856 123.294232,124.2572 123.08314,123.986351 C122.747201,123.562373 122.379081,123.168067 121.982445,122.807359 C121.228544,122.106337 120.384175,121.484977 119.600118,120.799887 C118.816062,120.114798 118.529579,119.461573 117.624898,119.206656 C116.769701,119.02583 115.902729,118.913981 115.03148,118.872077 C113.634937,118.587193 112.510653,117.492883 112.127506,116.045524 C111.744359,114.598164 112.168142,113.046294 113.222118,112.037113 C113.520267,111.818284 113.771907,111.536107 113.960941,111.208633 C114.07454,110.838773 114.105506,110.446132 114.051409,110.061506 C114.092011,108.018615 115.100087,106.133584 116.735295,105.042826 C118.349475,103.967862 120.225505,103.414141 122.133225,103.449594 C122.546193,103.478202 122.96056,103.424148 123.354544,103.290271 C123.71846,103.093438 124.049508,102.83512 124.334615,102.52552 C125.967382,101.065149 128.134294,100.456326 130.237872,100.86692 C132.341449,101.277514 134.159519,102.664159 135.190787,104.644518 C135.806547,105.7365 136.046246,107.019785 135.869297,108.277086 C135.75863,109.483471 134.934634,110.482195 133.818687,110.762528 L133.818687,110.762528 Z" id="Path" fill="#FF681C" fill-rule="nonzero"></path>
                        <path d="M131.903779,125.515853 L131.496673,125.515853 C131.398573,125.482892 131.293213,125.482892 131.195112,125.515853 C131.10456,125.606835 131.05517,125.734406 131.05941,125.866364 C130.931168,127.414149 130.931168,128.970815 131.05941,130.5186 L131.05941,130.5186 C128.392551,129.619972 126.691371,126.863703 126.988346,123.922621 C128.58521,124.63383 130.247694,125.167774 131.949013,125.515853 L131.903779,125.515853 Z" id="Path" fill="#E0A091" fill-rule="nonzero"></path>
                        <path d="M118.402907,136.546802 L123.882078,136.449608 C126.808727,136.397692 129.22333,138.728123 129.275246,141.654772 C129.276335,141.716123 129.276357,141.777488 129.275315,141.838839 L128.783995,170.746897 C128.73547,173.601964 126.433792,175.905353 123.578762,175.955998 L118.099591,176.053193 C115.172942,176.105109 112.758339,173.774677 112.706423,170.848028 C112.705335,170.786678 112.705312,170.725313 112.706355,170.663961 L113.197674,141.755903 C113.246199,138.900837 115.547878,136.597448 118.402907,136.546802 Z" id="Rectangle" fill="#FFFFFF" fill-rule="nonzero" transform="translate(120.990835, 156.251400) rotate(-19.530000) translate(-120.990835, -156.251400) "></path>
                        <path d="M344.217317,143.296318 C337.748849,271.424009 256.598969,304.913739 256.598969,304.913739 C166.507825,248.194691 166.960143,137.433226 166.960143,137.433226 C224.377249,121.054804 257.217167,87.5491423 258.242472,86.4498125 L258.242472,86.4498125 C279.653255,119.413776 344.217317,143.296318 344.217317,143.296318 Z" id="Path" fill="#1CAB68" fill-rule="nonzero"></path>
                        <path d="M344.217317,142.786484 C337.748849,270.914175 256.598969,304.403905 256.598969,304.403905 C166.507825,247.684857 166.960143,136.923392 166.960143,136.923392 C224.407405,120.576835 257.247323,87.1189698 258.272628,86.0037076 L258.272628,86.0037076 C279.653255,118.983603 344.217317,142.786484 344.217317,142.786484 Z" id="Path" fill="url(#linearGradient-1)" fill-rule="nonzero"></path>
                        <path d="M158.757725,154.0347 C159.511626,153.445204 160.265527,152.791979 160.898803,152.154687 C162.536796,150.592714 164.386741,149.298491 166.387201,148.314998 C168.39625,147.327126 170.646975,147.026364 172.825514,147.454653 C173.292932,147.550247 173.850819,147.852961 173.790507,148.362795 C173.730195,148.872629 173.45879,148.904494 173.172308,149.063817 C171.904119,149.806768 170.56468,150.404945 169.176634,150.848237 C168.603669,151.023492 167.940237,151.246544 167.668832,151.83604 C168.132871,151.890649 168.602573,151.830655 169.040932,151.660785 C170.759224,151.20227 172.540561,151.067437 174.303159,151.262477 C174.469017,151.262477 174.665032,151.262477 174.7555,151.485529 C174.845968,151.708582 174.7555,151.963499 174.484095,152.10689 C172.795358,153.524866 170.262251,153.429272 168.648903,154.958774 C168.362421,155.213691 168.151329,155.75539 168.467967,155.96251 C168.599971,156.009856 168.74307,156.009856 168.875074,155.96251 C169.568662,155.96251 170.247173,155.659796 170.940762,155.532338 C172.048567,155.30155 173.185212,155.269234 174.303159,155.436744 C174.452824,155.442292 174.594093,155.511187 174.695188,155.627932 C174.861046,155.898781 174.514251,156.201495 174.242847,156.344886 L168.407655,159.037447 C169.21037,159.109511 170.017423,159.109511 170.820138,159.037447 C171.637519,158.988721 172.44308,159.261107 173.08184,159.802199 C173.133689,159.829945 173.168011,159.884345 173.172308,159.945589 C173.172308,160.057116 173.172308,160.120845 173.00645,160.168642 C172.073405,160.701111 171.047197,161.026417 169.990847,161.124581 C169.363068,161.175236 168.741725,161.292667 168.136251,161.475092 C167.768804,161.619003 167.41112,161.789346 167.065712,161.984926 C165.943686,162.61466 164.73134,163.04526 163.477144,163.259511 C162.217851,163.485155 160.923304,163.26091 159.798108,162.622219 C159.497452,162.420894 159.179386,162.250184 158.848193,162.112384 C157.641952,161.761873 156.300009,163.084256 155.184235,162.462895 C154.809962,162.193337 154.508566,161.825446 154.30971,161.39543 C153.70659,160.343897 151.686136,157.412351 153.314561,156.44048 C154.230278,156.062302 155.166829,155.743071 156.119072,155.484541 C157.048722,155.110703 157.934192,154.62417 158.757725,154.0347 L158.757725,154.0347 Z" id="Path" fill="#FFBAA8" fill-rule="nonzero"></path>
                        <path d="M133.517127,157.428283 L153.48042,155.404879 L156.707115,165.697156 C156.707115,165.697156 127.531155,178.235889 121.861821,174.746712 C116.192487,171.257534 121.454714,165.569697 121.454714,165.569697 C121.454714,165.569697 122.118147,157.221163 133.517127,157.428283 Z" id="Path" fill="#FFFFFF" fill-rule="nonzero"></path>
                        <path d="M333.738097,149.509922 C328.023529,262.438183 256.5085,291.960765 256.5085,291.960765 C177.10767,241.965156 177.49968,144.347851 177.49968,144.347851 C228.116597,129.913172 257.051309,100.374657 257.95599,99.4665152 L257.95599,99.4665152 C276.80351,128.542993 333.738097,149.509922 333.738097,149.509922 Z" id="Path" fill="#1CAB68" fill-rule="nonzero"></path>
                        <path d="M257.971068,99.4505829 L256.463266,291.960765 C177.062436,241.965156 177.454446,144.347851 177.454446,144.347851 C228.071363,129.913172 257.006075,100.374657 257.910756,99.4665152 L257.971068,99.4505829 Z" id="Path" fill="url(#linearGradient-2)" fill-rule="nonzero"></path>
                        <ellipse id="Oval" fill="#473F47" fill-rule="nonzero" cx="256.5085" cy="181.979983" rx="14.0074765" ry="14.8011222"></ellipse>
                        <polygon id="Path" fill="#473F47" fill-rule="nonzero" points="248.07989 218.895161 263.172983 218.895161 258.890827 195.187874 253.387351 195.187874"></polygon>
                        <polyline id="Path" stroke="#FFFFFF" stroke-width="0.96" opacity="0.18" points="181.314436 176.562996 199.332665 176.562996 199.332665 162.749677 213.611546 162.749677"></polyline>
                        <polyline id="Path" stroke="#FFFFFF" stroke-width="0.96" opacity="0.18" points="184.842692 191.364118 208.304084 191.364118 208.304084 221.508061 222.990072 221.508061"></polyline>
                        <polyline id="Path" stroke="#FFFFFF" stroke-width="0.96" opacity="0.18" points="332.245373 167.178861 302.541682 167.178861 302.541682 149.382463 276.019453 149.382463"></polyline>
                        <polyline id="Path" stroke="#FFFFFF" stroke-width="0.96" opacity="0.18" points="326.711741 196.781106 297.777029 196.781106 297.777029 228.119972 277.376474 228.119972"></polyline>
                        <polyline id="Path" stroke="#FFFFFF" stroke-width="0.96" opacity="0.18" points="213.611546 251.938786 237.887151 251.938786 237.887151 239.893955 252.573138 239.893955"></polyline>
                        <path d="M195.940112,131.363013 C196.527704,131.594307 197.188646,131.452157 197.643927,130.99657 C198.30736,130.184022 197.77963,128.957233 197.236821,128.049091 C197.749474,127.634851 198.488296,128.160618 198.880325,128.718249 C199.272353,129.27588 199.739772,129.945037 200.388126,129.865375 C201.036481,129.785714 201.398353,128.845707 201.232495,128.144685 C200.972121,127.461802 200.643573,126.810204 200.252424,126.200943 C200.538906,125.786702 201.172183,126.200943 201.428509,126.599251 C201.684836,126.997558 202.03163,127.602986 202.499048,127.49146 C202.87906,127.310833 203.077553,126.864291 202.966467,126.439927 C202.852298,126.027487 202.76663,125.60683 202.710141,125.181274 C203.509276,124.910425 204.429034,125.786702 205.167857,125.372462 C205.429877,125.166321 205.596181,124.851817 205.624977,124.507982 C205.653773,124.164147 205.542325,123.823669 205.318637,123.57211 C204.842591,123.084863 204.227893,122.776899 203.569588,122.695833 C201.942107,122.329461 200.245639,122.542331 198.744623,123.301261 C197.010651,124.034148 195.201289,124.416523 193.512551,125.340598 C191.952903,126.039326 190.580467,127.133814 189.516877,128.527061 C189.34386,128.847059 189.428621,129.253537 189.712891,129.467068 C189.937868,129.547206 190.181503,129.547206 190.40648,129.467068 C191.605351,129.229162 192.84522,129.449398 193.90458,130.088428 C194.474148,130.510088 195.068405,130.893229 195.683785,131.235555 L195.940112,131.363013 Z" id="Path" fill="#FFBAA8" fill-rule="nonzero"></path>
                        <path d="M420.843793,141.288847 C404.438912,104.325872 328.988522,76.3168591 238.671208,76.3168591 C136.38195,76.3168591 53.2116156,112.228301 53.2116156,156.37675 C53.2116156,200.5252 136.427184,236.436642 238.671208,236.436642 C308.391952,236.436642 369.246823,219.755506 400.940812,195.156009 C405.501561,191.677007 409.688047,187.68073 413.425409,183.238636 C418.34368,177.625172 421.80772,170.765523 423.482446,163.323241 C423.939043,161.039099 424.171469,158.711286 424.176034,156.37675 C424.138211,151.148531 422.999961,145.994702 420.843793,141.288847 Z M411.962842,183.095246 C408.711304,186.867343 405.1266,190.303046 401.257451,193.355657 C370.226894,218.178207 308.979995,235.098327 238.641052,235.098327 C137.060461,235.098327 54.4027788,199.792313 54.4027788,156.37675 C54.4027788,112.961187 137.060461,77.6392414 238.671208,77.6392414 C327.842592,77.6392414 402.418458,104.851638 419.320913,140.858674 C421.644005,145.665666 422.872812,150.979409 422.909611,156.37675 C422.91485,158.263244 422.753315,160.146137 422.426985,162.000858 C421.190587,169.361589 417.60202,176.435537 411.962842,183.095246 Z" id="Shape" fill="#FFFFFF" fill-rule="nonzero"></path>
                        <path d="M426.482971,152.744182 C426.369645,151.454629 426.188428,150.172748 425.940162,148.904494 C425.483486,146.644458 424.837616,144.431783 424.010176,142.292582 L423.738772,142.196989 C422.788857,141.878342 421.808786,141.591561 420.843793,141.288847 C404.438912,104.325872 328.988522,76.3168591 238.671208,76.3168591 C136.38195,76.3168591 53.2116156,112.228301 53.2116156,156.37675 C53.2116156,200.5252 136.427184,236.436642 238.671208,236.436642 C308.391952,236.436642 369.246823,219.755506 400.940812,195.156009 C400.88012,196.1237 401.189777,197.076604 401.800259,197.800774 C407.535687,193.52967 412.694453,188.45381 417.134601,182.71287 C420.728832,178.080436 423.451563,172.764481 425.156105,167.051403 C426.156586,163.597268 426.663909,160.004974 426.663909,156.392683 C426.663909,155.174002 426.603901,153.956146 426.482971,152.744182 Z M238.671208,235.098327 C137.090617,235.098327 54.4329349,199.792313 54.4329349,156.37675 C54.4329349,112.961187 137.060461,77.6392414 238.671208,77.6392414 C327.842592,77.6392414 402.418458,104.851638 419.320913,140.858674 C418.441752,140.677861 417.530361,140.842142 416.757651,141.320711 C419.096931,145.957673 420.343435,151.122348 420.391453,156.37675 C420.391453,157.590954 420.318713,158.803945 420.18036,160.009319 C419.290757,167.688695 415.656956,175.208749 409.324189,182.314562 C406.952668,184.985954 404.392053,187.462625 401.664557,189.723089 C401.846934,190.405455 401.846934,191.127857 401.664557,191.810223 C401.528855,192.320057 401.378075,192.829891 401.242373,193.403454 C370.226894,218.178207 308.979995,235.098327 238.671208,235.098327 Z" id="Shape" fill="#1CAB68" fill-rule="nonzero" opacity="0.18"></path>
                        <path d="M419.290757,140.858674 C418.411596,140.677861 417.500205,140.842142 416.727495,141.320711 C409.791608,127.125017 393.039932,113.933059 367.90488,103.194677 C333.361146,88.4413521 287.448589,80.3158706 238.671208,80.3158706 C189.893827,80.3158706 143.936036,88.4413521 109.392302,103.194677 C75.5421568,117.645289 56.9208074,136.509152 56.9208074,156.37675 C56.9208074,176.244349 75.5421568,195.09228 109.362146,209.542891 C143.90588,224.312149 189.818437,232.43763 238.641052,232.43763 C287.463667,232.43763 333.361146,224.312149 367.90488,209.542891 C381.791732,203.616069 393.100244,196.956361 401.634401,189.739022 C401.816778,190.421388 401.816778,191.143789 401.634401,191.826155 C401.498699,192.335989 401.347919,192.845823 401.212217,193.419387 C370.18166,218.241936 308.934761,235.162056 238.595818,235.162056 C137.015227,235.162056 54.3575448,199.856043 54.3575448,156.44048 C54.3575448,113.024917 137.060461,77.6392414 238.671208,77.6392414 C327.812436,77.6392414 402.388302,104.851638 419.290757,140.858674 Z" id="Path" fill="#1CAB68" fill-rule="nonzero" opacity="0.18"></path>
                        <path d="M424.010176,142.292582 L423.738772,142.196989 C422.788857,141.878342 421.808786,141.591561 420.843793,141.288847 C404.438912,104.325872 328.988522,76.3168591 238.671208,76.3168591 C136.38195,76.3168591 53.2116156,112.228301 53.2116156,156.37675 C53.2116156,200.5252 136.427184,236.436642 238.671208,236.436642 C308.391952,236.436642 369.246823,219.755506 400.940812,195.156009 C400.88012,196.1237 401.189777,197.076604 401.800259,197.800774 C392.134363,204.951101 381.703627,210.871068 370.724469,215.437848 C335.336366,230.701008 288.42866,239.097339 238.671208,239.097339 C188.913756,239.097339 141.975894,230.701008 106.617947,215.437848 C70.5211775,199.856043 50.6483529,178.873182 50.6483529,156.37675 C50.6483529,133.880319 70.4910215,112.897458 106.587791,97.3315848 C141.945738,82.0524931 188.913756,73.6561622 238.671208,73.6561622 C288.42866,73.6561622 335.366522,82.0524931 370.724469,97.3315848 C399.13145,109.599469 417.496474,125.213139 424.010176,142.292582 Z" id="Path" fill="#1CAB68" fill-rule="nonzero" opacity="0.18"></path>
                        <ellipse id="Oval" fill="#1CAB68" fill-rule="nonzero" opacity="0.35" cx="230.483845" cy="289.077016" rx="145.095745" ry="25.2686543"></ellipse>
                        <polygon id="Path" fill="#FFFFFF" fill-rule="nonzero" points="198.563686 100.263131 163.024804 100.263131 163.024804 53.9000895 193.663331 53.9000895 198.563686 60.5120009"></polygon>
                        <polygon id="Path" fill="#FFFFFF" fill-rule="nonzero" points="195.412381 103.00349 159.873498 103.00349 159.873498 56.640448 190.512026 56.640448 195.412381 63.2523594"></polygon>
                        <polygon id="Path" fill="url(#linearGradient-3)" fill-rule="nonzero" points="195.110821 103.322136 159.571938 103.322136 159.571938 56.9590943 190.210466 56.9590943 195.110821 63.5710057"></polygon>
                        <polygon id="Path" fill="#FFFFFF" fill-rule="nonzero" points="191.989672 107.161824 156.450789 107.161824 156.450789 60.7828503 187.089316 60.7828503 191.989672 67.3947617"></polygon>
                        <polygon id="Path" fill="url(#linearGradient-4)" fill-rule="nonzero" points="187.089316 60.7828503 187.089316 67.3310325 191.989672 67.3310325"></polygon>
                        <polygon id="Path" fill="url(#linearGradient-5)" fill-rule="nonzero" points="190.210466 56.9590943 190.210466 63.6984643 195.110821 63.6984643"></polygon>
                        <polygon id="Path" fill="url(#linearGradient-6)" fill-rule="nonzero" points="193.663331 53.9000895 193.663331 60.6394595 198.563686 60.6394595"></polygon>
                        <g id="Q83r0t" transform="translate(386.556385, 139.201713)" fill="#1CAB68" fill-rule="nonzero">
                            <path d="M37.4688689,58.6787224 C36.516742,58.4214144 35.7085179,57.7578201 35.2373226,56.8465059 C34.8754502,56.193281 34.5437338,55.5081913 34.1818615,54.8549664 C33.5443838,53.5149109 32.161931,52.7619974 30.7591519,52.9908853 C29.3280088,53.0892911 28.1152149,54.1401287 27.7435488,55.6037852 C27.5173785,56.3844688 27.3364424,57.1970169 27.0801161,57.9458358 C26.4799392,59.9537605 24.4661979,61.0815143 22.5567114,60.4790741 L18.4102571,59.1885565 C17.4503403,58.9146508 16.6362174,58.2418573 16.1533421,57.3234354 C15.6704668,56.4050135 15.5599599,55.3191744 15.8469944,54.3132676 C16.0430086,53.5166517 16.2993349,52.7200359 16.4802711,51.9552847 C16.875795,50.5502368 16.3855894,49.0346655 15.2589518,48.1793257 C14.2328287,47.2274104 12.7462749,47.0735381 11.564838,47.7969501 C10.9164833,48.1315287 10.2982847,48.5298366 9.66500803,48.8803476 C8.78521683,49.3995326 7.74483949,49.5232151 6.77786418,49.2235779 C5.81088887,48.9239407 4.99849826,48.2261399 4.52340469,47.2871159 C3.79965994,45.9010044 3.01560313,44.5308251 2.36724846,43.1447136 C1.85050054,42.226084 1.71944045,41.1214562 2.0055849,40.0964659 C2.29172934,39.0714756 2.96918844,38.2188622 3.87505002,37.7436582 C4.47817065,37.3772149 5.1114473,37.0585686 5.69948991,36.6921253 C6.91633701,36.0388818 7.61562145,34.65025 7.44853973,33.2188803 C7.39681549,31.7370457 6.45656439,30.4550786 5.1114473,30.032417 C4.38770255,29.7774999 3.60364574,29.5863121 2.894979,29.331395 C1.89304365,29.0528922 1.04867542,28.3409136 0.569348398,27.3704033 C0.0900213763,26.3998929 0.0201673056,25.2608134 0.376950391,24.2330537 C0.753900782,22.8469421 1.13085117,21.4608306 1.52287958,20.074719 C2.01905473,18.0677925 3.93905981,16.8448632 5.85027007,17.3184282 C6.63432688,17.4777514 7.35807163,17.7486008 8.15720646,17.9716532 C9.53911679,18.4679315 11.0670797,17.9924746 11.9738883,16.7840146 C12.880697,15.5755546 12.9704633,13.8951419 12.1981147,12.5865302 C11.8663983,11.9651698 11.534682,11.3438095 11.2331217,10.7224491 C10.7730367,9.82663036 10.6736191,8.77281616 10.9572887,7.79865471 C11.2409583,6.82449325 11.8838282,6.01201584 12.7409232,5.54444621 C14.1431787,4.70003342 15.5605121,3.95121454 17.0080016,3.12273407 C18.7875794,2.19906471 20.9401141,2.89676243 21.9234347,4.71596574 C22.3003851,5.40105536 22.6321015,6.10207729 23.0090519,6.78716691 C23.647098,8.06125934 24.9772569,8.77041009 26.3262153,8.55565406 C27.7144245,8.46598758 28.8955639,7.45473795 29.2664284,6.03834802 C29.4925986,5.32139377 29.6735348,4.57257489 29.884627,3.85562064 C30.1459746,2.78172442 30.8223397,1.87328526 31.7485792,1.35210979 C32.6748187,0.830934328 33.7656837,0.74499036 34.7548261,1.11526217 L38.6147981,2.31018592 C39.6079664,2.56931611 40.456531,3.24871703 40.9613133,4.18891686 C41.4660956,5.12911669 41.5826458,6.24732407 41.2836068,7.28106873 C41.1026706,7.98209066 40.8915784,8.69904491 40.6955642,9.40006684 C40.2156913,10.8367666 40.6734966,12.4363468 41.8264154,13.3512814 C42.9239607,14.3402441 44.4976309,14.4750683 45.7316214,13.68586 C46.3196641,13.3512814 46.9077067,12.9848381 47.4957493,12.6661918 C48.3713141,12.1623021 49.4006001,12.0470944 50.3566409,12.3459727 C51.3126816,12.6448511 52.1169575,13.3332686 52.5921186,14.2594234 C53.3460193,15.6773996 54.0999201,17.1113081 54.8236649,18.5452166 C55.305181,19.4541349 55.4165606,20.5307646 55.1322545,21.5281408 C54.8479484,22.5255169 54.1923566,23.3580421 53.3158633,23.8347458 C52.6675086,24.2171214 51.9889979,24.5517 51.3406433,24.9500079 C50.2275352,25.5621533 49.5642098,26.8137757 49.6519047,28.1364713 C49.645507,29.5494621 50.4683671,30.8187793 51.7175937,31.3229346 C52.4714944,31.6415809 53.2253952,31.8487011 54.0697641,32.1036181 C55.006368,32.3260783 55.8099333,32.9574077 56.2812535,33.8410977 C56.7525737,34.7247878 56.8475214,35.7781026 56.5425587,36.7399223 C56.1505303,38.3331539 55.7132678,39.9263856 55.2307713,41.5196173 C54.9854992,42.5326266 54.3440121,43.387575 53.4665212,43.8709394 C52.5890304,44.3543038 51.5583807,44.4204491 50.6319765,44.0528556 C49.9383878,43.8457355 49.2598771,43.6067508 48.5512104,43.4314953 C47.2393403,43.0583203 45.846786,43.5933947 45.0681888,44.7698099 C44.1966912,45.8465821 44.0694404,47.3896791 44.7515504,48.6094982 C45.0983448,49.3105201 45.4903732,49.9956098 45.8371676,50.6806994 C46.3192793,51.5920252 46.4310183,52.670986 46.1468398,53.6709177 C45.8626612,54.6708494 45.2068619,55.5062588 44.329366,55.9861608 C42.9874226,56.7827767 41.6304012,57.5793925 40.2733798,58.3282114 C39.4226064,58.843357 38.4099029,58.9699259 37.4688689,58.6787224 Z M17.0984697,27.1964646 C15.7292352,32.090804 17.28504,37.3747534 21.0404044,40.5843804 C24.7957688,43.7940073 30.011125,44.2972195 34.254526,41.8593666 C38.497927,39.4215137 40.9336928,34.5226975 40.4260135,29.447261 C39.9183342,24.3718244 36.5671903,20.1193054 31.9352371,18.6726752 C28.897966,17.7152363 25.6248138,18.0763587 22.8402295,19.6761149 C20.0556452,21.2758711 17.9892749,23.9823283 17.0984697,27.1964646 L17.0984697,27.1964646 Z" id="Shape"></path>
                        </g>
                        <g id="Q83r0t-2" opacity="0.27" transform="translate(386.556385, 139.201713)" fill="#020202" fill-rule="nonzero">
                            <path d="M37.4688689,58.6787224 C36.516742,58.4214144 35.7085179,57.7578201 35.2373226,56.8465059 C34.8754502,56.193281 34.5437338,55.5081913 34.1818615,54.8549664 C33.5443838,53.5149109 32.161931,52.7619974 30.7591519,52.9908853 C29.3280088,53.0892911 28.1152149,54.1401287 27.7435488,55.6037852 C27.5173785,56.3844688 27.3364424,57.1970169 27.0801161,57.9458358 C26.4799392,59.9537605 24.4661979,61.0815143 22.5567114,60.4790741 L18.4102571,59.1885565 C17.4503403,58.9146508 16.6362174,58.2418573 16.1533421,57.3234354 C15.6704668,56.4050135 15.5599599,55.3191744 15.8469944,54.3132676 C16.0430086,53.5166517 16.2993349,52.7200359 16.4802711,51.9552847 C16.875795,50.5502368 16.3855894,49.0346655 15.2589518,48.1793257 C14.2328287,47.2274104 12.7462749,47.0735381 11.564838,47.7969501 C10.9164833,48.1315287 10.2982847,48.5298366 9.66500803,48.8803476 C8.78521683,49.3995326 7.74483949,49.5232151 6.77786418,49.2235779 C5.81088887,48.9239407 4.99849826,48.2261399 4.52340469,47.2871159 C3.79965994,45.9010044 3.01560313,44.5308251 2.36724846,43.1447136 C1.85050054,42.226084 1.71944045,41.1214562 2.0055849,40.0964659 C2.29172934,39.0714756 2.96918844,38.2188622 3.87505002,37.7436582 C4.47817065,37.3772149 5.1114473,37.0585686 5.69948991,36.6921253 C6.91633701,36.0388818 7.61562145,34.65025 7.44853973,33.2188803 C7.39681549,31.7370457 6.45656439,30.4550786 5.1114473,30.032417 C4.38770255,29.7774999 3.60364574,29.5863121 2.894979,29.331395 C1.89304365,29.0528922 1.04867542,28.3409136 0.569348398,27.3704033 C0.0900213763,26.3998929 0.0201673056,25.2608134 0.376950391,24.2330537 C0.753900782,22.8469421 1.13085117,21.4608306 1.52287958,20.074719 C2.01905473,18.0677925 3.93905981,16.8448632 5.85027007,17.3184282 C6.63432688,17.4777514 7.35807163,17.7486008 8.15720646,17.9716532 C9.53911679,18.4679315 11.0670797,17.9924746 11.9738883,16.7840146 C12.880697,15.5755546 12.9704633,13.8951419 12.1981147,12.5865302 C11.8663983,11.9651698 11.534682,11.3438095 11.2331217,10.7224491 C10.7730367,9.82663036 10.6736191,8.77281616 10.9572887,7.79865471 C11.2409583,6.82449325 11.8838282,6.01201584 12.7409232,5.54444621 C14.1431787,4.70003342 15.5605121,3.95121454 17.0080016,3.12273407 C18.7875794,2.19906471 20.9401141,2.89676243 21.9234347,4.71596574 C22.3003851,5.40105536 22.6321015,6.10207729 23.0090519,6.78716691 C23.647098,8.06125934 24.9772569,8.77041009 26.3262153,8.55565406 C27.7144245,8.46598758 28.8955639,7.45473795 29.2664284,6.03834802 C29.4925986,5.32139377 29.6735348,4.57257489 29.884627,3.85562064 C30.1459746,2.78172442 30.8223397,1.87328526 31.7485792,1.35210979 C32.6748187,0.830934328 33.7656837,0.74499036 34.7548261,1.11526217 L38.6147981,2.31018592 C39.6079664,2.56931611 40.456531,3.24871703 40.9613133,4.18891686 C41.4660956,5.12911669 41.5826458,6.24732407 41.2836068,7.28106873 C41.1026706,7.98209066 40.8915784,8.69904491 40.6955642,9.40006684 C40.2156913,10.8367666 40.6734966,12.4363468 41.8264154,13.3512814 C42.9239607,14.3402441 44.4976309,14.4750683 45.7316214,13.68586 C46.3196641,13.3512814 46.9077067,12.9848381 47.4957493,12.6661918 C48.3713141,12.1623021 49.4006001,12.0470944 50.3566409,12.3459727 C51.3126816,12.6448511 52.1169575,13.3332686 52.5921186,14.2594234 C53.3460193,15.6773996 54.0999201,17.1113081 54.8236649,18.5452166 C55.305181,19.4541349 55.4165606,20.5307646 55.1322545,21.5281408 C54.8479484,22.5255169 54.1923566,23.3580421 53.3158633,23.8347458 C52.6675086,24.2171214 51.9889979,24.5517 51.3406433,24.9500079 C50.2275352,25.5621533 49.5642098,26.8137757 49.6519047,28.1364713 C49.645507,29.5494621 50.4683671,30.8187793 51.7175937,31.3229346 C52.4714944,31.6415809 53.2253952,31.8487011 54.0697641,32.1036181 C55.006368,32.3260783 55.8099333,32.9574077 56.2812535,33.8410977 C56.7525737,34.7247878 56.8475214,35.7781026 56.5425587,36.7399223 C56.1505303,38.3331539 55.7132678,39.9263856 55.2307713,41.5196173 C54.9854992,42.5326266 54.3440121,43.387575 53.4665212,43.8709394 C52.5890304,44.3543038 51.5583807,44.4204491 50.6319765,44.0528556 C49.9383878,43.8457355 49.2598771,43.6067508 48.5512104,43.4314953 C47.2393403,43.0583203 45.846786,43.5933947 45.0681888,44.7698099 C44.1966912,45.8465821 44.0694404,47.3896791 44.7515504,48.6094982 C45.0983448,49.3105201 45.4903732,49.9956098 45.8371676,50.6806994 C46.3192793,51.5920252 46.4310183,52.670986 46.1468398,53.6709177 C45.8626612,54.6708494 45.2068619,55.5062588 44.329366,55.9861608 C42.9874226,56.7827767 41.6304012,57.5793925 40.2733798,58.3282114 C39.4226064,58.843357 38.4099029,58.9699259 37.4688689,58.6787224 Z M17.0984697,27.1964646 C15.7292352,32.090804 17.28504,37.3747534 21.0404044,40.5843804 C24.7957688,43.7940073 30.011125,44.2972195 34.254526,41.8593666 C38.497927,39.4215137 40.9336928,34.5226975 40.4260135,29.447261 C39.9183342,24.3718244 36.5671903,20.1193054 31.9352371,18.6726752 C28.897966,17.7152363 25.6248138,18.0763587 22.8402295,19.6761149 C20.0556452,21.2758711 17.9892749,23.9823283 17.0984697,27.1964646 L17.0984697,27.1964646 Z" id="Shape"></path>
                        </g>
                        <g id="Q83r0t-3" transform="translate(385.048584, 140.794945)" fill="#1CAB68" fill-rule="nonzero">
                            <path d="M54.1602322,31.2273407 C53.3912534,30.9724236 52.5770405,30.7812358 51.8231398,30.4466572 C50.5739132,29.9425019 49.7510531,28.6731846 49.7574516,27.2601939 C49.6765411,25.9348588 50.3451525,24.6844268 51.4612674,24.0737305 C52.094544,23.6913549 52.7730547,23.3408439 53.4214094,22.9584683 C54.2979027,22.4817647 54.9534945,21.6492395 55.2378006,20.6518633 C55.5221067,19.6544872 55.4107271,18.5778574 54.929211,17.6689392 C54.2054662,16.2350307 53.4214094,14.8011222 52.6976647,13.3990783 C52.2225036,12.4729235 51.4182278,11.784506 50.462187,11.4856276 C49.5061462,11.1867493 48.4768602,11.301957 47.6012954,11.8058467 L45.8371676,12.8255149 C44.6063482,13.6191381 43.0328816,13.4907507 41.9319615,12.5068686 C41.7661033,12.3475454 41.6153232,12.1882223 41.464543,12.0129668 C40.6560759,11.0720567 40.4013154,9.73831854 40.8011103,8.53972174 C40.8011103,8.42819553 40.8765004,8.28480468 40.9217345,8.17327846 C41.0725146,7.58378274 41.2383728,7.01021934 41.3740749,6.42072362 C41.9762307,4.3846211 40.9131173,2.21613289 38.9917485,1.56136704 L38.7203442,1.46577314 C37.7704292,1.1471268 36.7903582,0.860345101 35.8253652,0.557631084 L34.8452941,0.254917067 L34.2723296,0.127458533 C33.3931677,-0.0533544824 32.4817773,0.110926873 31.7090669,0.589495717 C30.8944997,1.1225592 30.2976385,1.9577822 30.0354072,2.93154627 C29.8092369,3.66443284 29.6283007,4.39731941 29.4172085,5.13020597 C29.0238991,6.56121648 27.8105429,7.56766766 26.4016054,7.63157969 C25.0568702,7.84426561 23.7302578,7.14337734 23.0844419,5.87902486 C22.6924135,5.19393524 22.3757752,4.49291331 21.9988248,3.79189137 C21.0263633,1.96818683 18.8729666,1.26806209 17.0984697,2.1986597 C15.5906682,2.94747859 14.2185688,3.79189137 12.8163133,4.60443952 C11.9592183,5.07200915 11.3163484,5.88448657 11.0326788,6.85864802 C10.7490092,7.83280948 10.8484268,8.88662368 11.3085117,9.78244245 C11.610072,10.4197351 11.9568664,11.0251631 12.2735047,11.6465235 C13.0777696,12.9496725 12.9861169,14.6541542 12.0473345,15.8526551 C11.1534695,17.0797658 9.61495595,17.5616878 8.23259654,17.0475789 C7.46361774,16.8085941 6.72479498,16.5377447 5.92566015,16.3784216 C4.01444989,15.9048566 2.09444481,17.1277858 1.59826966,19.1347123 C1.22131927,20.5208239 0.82929086,21.9069354 0.452340469,23.3089793 C0.0960836015,24.3368178 0.168239964,25.4759746 0.650948999,26.4444789 C1.13365803,27.4129832 1.98180334,28.1203139 2.9854471,28.3913883 C3.70919185,28.6622377 4.49324866,28.8215609 5.18683738,29.0924103 C6.52650579,29.5234533 7.46316496,30.800523 7.52392981,32.2788736 C7.70293266,33.7082973 7.007556,35.1011766 5.78995801,35.7521186 C5.18683738,36.1185619 4.55356072,36.4531406 3.9504401,36.8036515 C3.04457852,37.2788555 2.36711942,38.1314689 2.08097498,39.1564592 C1.79483053,40.1814495 1.92589062,41.2860773 2.44263853,42.2047069 C3.15130527,43.5908185 3.87505002,44.97693 4.59879477,46.3471092 C5.07985369,47.2797147 5.89226622,47.9717914 6.85683146,48.2706818 C7.8213967,48.5695722 8.85886685,48.4507198 9.7403981,47.9403409 C10.3736748,47.5738976 10.9918734,47.191522 11.6402281,46.8410111 C12.8236932,46.1275517 14.3044013,46.2808189 15.3343419,47.2233867 C15.8822643,47.654604 16.2968066,48.2478847 16.5255051,48.9281445 C16.7078822,49.6105106 16.7078822,50.3329119 16.5255051,51.015278 C16.389803,51.5251122 16.2390228,52.0349463 16.1033207,52.6085097 L15.8771505,53.4210578 C15.5741367,54.6874083 15.8473339,56.0306362 16.6159732,57.0536261 C17.0873044,57.6612665 17.7243348,58.1007439 18.4404131,58.3122791 L22.5868674,59.5868644 C24.4954892,60.1801622 26.5034206,59.0556621 27.1102721,57.0536261 C27.3665984,56.2888749 27.5475346,55.4603944 27.7737048,54.7115755 C28.1534313,53.2534342 29.3617043,52.2065138 30.7893079,52.0986756 C32.1861701,51.8822951 33.5577824,52.6326099 34.1969395,53.9627566 C34.5588119,54.6159816 34.8905282,55.3010712 35.2373226,55.9702285 C36.2425264,57.8588245 38.4846002,58.5639158 40.3035358,57.5634602 C41.6605572,56.7827767 43.0175786,55.9702285 44.359522,55.2214096 C45.2360153,54.744706 45.8916071,53.9121808 46.1759132,52.9148046 C46.4602193,51.9174285 46.3488397,50.8407987 45.8673236,49.9318805 C45.5054512,49.2308586 45.1134228,48.5617013 44.7817065,47.8606793 C44.0858834,46.6465348 44.2075545,45.0973284 45.0832668,44.020991 C45.8634882,42.8463671 47.2516218,42.3066416 48.5662884,42.6667441 C49.2749551,42.8419996 49.9534658,43.0969166 50.6470545,43.3040368 C51.5641572,43.6500024 52.5766616,43.5725949 53.437081,43.090735 C54.2975003,42.6088751 54.9265456,41.7669669 55.1704592,40.7707984 C55.6680338,39.1775667 56.1052962,37.5843351 56.4973246,35.9911034 C56.8409731,35.0334839 56.782436,33.9665441 56.3363632,33.0573011 C55.8902904,32.1480581 55.098894,31.482554 54.1602322,31.2273407 L54.1602322,31.2273407 Z M40.1376776,33.3622711 C38.5819323,38.8427671 33.7605517,42.5561887 28.3466694,42.4436917 C27.8663534,42.4361544 27.3873684,42.3882058 26.9142579,42.3003008 C26.3693365,42.2163472 25.8303479,42.0939255 25.3009102,41.9338575 C24.9414299,41.8249461 24.5888932,41.6919065 24.2454492,41.5355496 C18.3280247,39.0365977 15.3150694,32.0637559 17.4038789,25.702196 C19.4926884,19.3406361 25.9452668,15.8379567 32.0558613,17.7486008 C33.1220948,18.0826677 34.1375916,18.5762631 35.0714644,19.2143739 C35.904393,19.764522 36.6605646,20.4348369 37.3180887,21.2059135 C37.7025151,21.6164588 38.0554471,22.0586456 38.3735498,22.5282958 C39.1259913,23.6612902 39.7012616,24.9146744 40.0773656,26.2405256 C40.7537188,28.5575266 40.7746816,31.0328516 40.1376776,33.3622711 L40.1376776,33.3622711 Z" id="Shape"></path>
                        </g>
                    </g>
                </g>
            </g>
        </g>
    </g>
</svg>