<?xml version="1.0" encoding="UTF-8"?>
<svg width="480px" height="375px" viewBox="0 0 480 375" version="1.1" xmlns="http://www.w3.org/2000/svg" xmlns:xlink="http://www.w3.org/1999/xlink">
    <title>online_storage</title>
    <defs>
        <linearGradient x1="63.8169564%" y1="50.4417683%" x2="-75.4611564%" y2="45.9871433%" id="linearGradient-1">
            <stop stop-color="#000000" offset="1%"></stop>
            <stop stop-color="#000000" stop-opacity="0.69" offset="13%"></stop>
            <stop stop-color="#000000" stop-opacity="0.32" offset="25%"></stop>
            <stop stop-color="#000000" stop-opacity="0" offset="100%"></stop>
        </linearGradient>
        <linearGradient x1="91.6725789%" y1="50.1216017%" x2="-130.542746%" y2="49.4720331%" id="linearGradient-2">
            <stop stop-color="#000000" offset="1%"></stop>
            <stop stop-color="#000000" stop-opacity="0.69" offset="13%"></stop>
            <stop stop-color="#000000" stop-opacity="0.32" offset="25%"></stop>
            <stop stop-color="#000000" stop-opacity="0" offset="100%"></stop>
        </linearGradient>
        <linearGradient x1="26.4228806%" y1="9.65546576%" x2="81.4270323%" y2="103.658018%" id="linearGradient-3">
            <stop stop-color="#000000" offset="1%"></stop>
            <stop stop-color="#000000" stop-opacity="0.69" offset="13%"></stop>
            <stop stop-color="#000000" stop-opacity="0.32" offset="25%"></stop>
            <stop stop-color="#000000" stop-opacity="0" offset="100%"></stop>
        </linearGradient>
        <linearGradient x1="95.2376729%" y1="51.6485499%" x2="-128.228095%" y2="43.5027741%" id="linearGradient-4">
            <stop stop-color="#000000" offset="1%"></stop>
            <stop stop-color="#000000" stop-opacity="0.69" offset="13%"></stop>
            <stop stop-color="#000000" stop-opacity="0.32" offset="25%"></stop>
            <stop stop-color="#000000" stop-opacity="0" offset="100%"></stop>
        </linearGradient>
        <linearGradient x1="92.8501999%" y1="-17.5291421%" x2="-20.123333%" y2="130.384158%" id="linearGradient-5">
            <stop stop-color="#000000" offset="1%"></stop>
            <stop stop-color="#000000" stop-opacity="0.69" offset="13%"></stop>
            <stop stop-color="#000000" stop-opacity="0.32" offset="25%"></stop>
            <stop stop-color="#000000" stop-opacity="0" offset="100%"></stop>
        </linearGradient>
        <linearGradient x1="376.359704%" y1="85.8409527%" x2="-273.382786%" y2="14.2539574%" id="linearGradient-6">
            <stop stop-color="#000000" offset="1%"></stop>
            <stop stop-color="#000000" stop-opacity="0.69" offset="13%"></stop>
            <stop stop-color="#000000" stop-opacity="0.32" offset="25%"></stop>
            <stop stop-color="#000000" stop-opacity="0" offset="100%"></stop>
        </linearGradient>
        <linearGradient x1="52.6723822%" y1="136.608752%" x2="48.2042723%" y2="22.5666416%" id="linearGradient-7">
            <stop stop-color="#000000" offset="1%"></stop>
            <stop stop-color="#000000" stop-opacity="0.69" offset="13%"></stop>
            <stop stop-color="#000000" stop-opacity="0.32" offset="25%"></stop>
            <stop stop-color="#000000" stop-opacity="0" offset="100%"></stop>
        </linearGradient>
        <linearGradient x1="43.2065998%" y1="195.676926%" x2="54.580353%" y2="-16.3224152%" id="linearGradient-8">
            <stop stop-color="#000000" offset="1%"></stop>
            <stop stop-color="#000000" stop-opacity="0.69" offset="13%"></stop>
            <stop stop-color="#000000" stop-opacity="0.32" offset="25%"></stop>
            <stop stop-color="#000000" stop-opacity="0" offset="100%"></stop>
        </linearGradient>
        <linearGradient x1="-148.602275%" y1="-15.6861218%" x2="424.908425%" y2="173.983879%" id="linearGradient-9">
            <stop stop-color="#000000" offset="1%"></stop>
            <stop stop-color="#000000" stop-opacity="0.69" offset="13%"></stop>
            <stop stop-color="#000000" stop-opacity="0.32" offset="25%"></stop>
            <stop stop-color="#000000" stop-opacity="0" offset="100%"></stop>
        </linearGradient>
        <linearGradient x1="-91.2250287%" y1="-6.49701176%" x2="316.565232%" y2="156.641604%" id="linearGradient-10">
            <stop stop-color="#000000" offset="1%"></stop>
            <stop stop-color="#000000" stop-opacity="0.69" offset="13%"></stop>
            <stop stop-color="#000000" stop-opacity="0.32" offset="25%"></stop>
            <stop stop-color="#000000" stop-opacity="0" offset="100%"></stop>
        </linearGradient>
        <linearGradient x1="-15.5297533%" y1="50.0165597%" x2="284.179971%" y2="50.0165597%" id="linearGradient-11">
            <stop stop-color="#000000" offset="1%"></stop>
            <stop stop-color="#000000" stop-opacity="0.69" offset="13%"></stop>
            <stop stop-color="#000000" stop-opacity="0.32" offset="25%"></stop>
            <stop stop-color="#000000" stop-opacity="0" offset="100%"></stop>
        </linearGradient>
        <linearGradient x1="100.374813%" y1="68.5654145%" x2="-82.1964018%" y2="-8.82986844%" id="linearGradient-12">
            <stop stop-color="#000000" offset="1%"></stop>
            <stop stop-color="#000000" stop-opacity="0.69" offset="13%"></stop>
            <stop stop-color="#000000" stop-opacity="0.32" offset="25%"></stop>
            <stop stop-color="#000000" stop-opacity="0" offset="100%"></stop>
        </linearGradient>
        <linearGradient x1="99.9490056%" y1="16.6287985%" x2="-45.826959%" y2="113.905984%" id="linearGradient-13">
            <stop stop-color="#000000" offset="1%"></stop>
            <stop stop-color="#000000" stop-opacity="0.69" offset="13%"></stop>
            <stop stop-color="#000000" stop-opacity="0.32" offset="25%"></stop>
            <stop stop-color="#000000" stop-opacity="0" offset="100%"></stop>
        </linearGradient>
    </defs>
    <g id="pages" stroke="none" stroke-width="1" fill="none" fill-rule="evenodd">
        <g id="Solutions" transform="translate(-840.000000, -1081.000000)" fill-rule="nonzero">
            <g id="solution-1" transform="translate(0.000000, 988.000000)">
                <g id="soluiton-1" transform="translate(120.000000, 67.000000)">
                    <g id="online_storage" transform="translate(720.000000, 26.000000)">
                        <path d="M336.87573,60.5426165 C346.007128,77.4950556 355.303171,95.9920783 362.370189,113.716809 C369.551192,131.745393 385.027709,146.988661 399.27573,159.611202 C415.005545,173.537776 432.103171,185.932427 446.908448,200.833862 C461.713725,215.735296 474.353302,233.751219 478.469397,254.311907 C483.130083,277.581946 476.367023,301.953451 464.778632,322.678726 C461.172822,329.49968 456.533275,335.722037 451.024543,341.125107 C445.300004,346.467847 438.359635,350.354627 431.381271,353.861592 C412.687867,363.205057 393.03193,370.459536 372.274147,373.257512 C350.667814,376.169432 328.6942,374.878058 307.125862,372.206688 C278.123223,368.623761 249.386548,362.559371 220.206601,360.812218 C199.170189,359.546166 178.057788,360.584329 157.046706,362.166894 C134.566495,363.850744 111.643012,366.129638 89.7200571,360.900842 C60.9453869,354.0515 36.0081838,334.212462 20.7722998,308.790133 C7.48681172,286.684862 -7.4451144,244.651928 4.18127082,219.862626 C16.5675505,193.465438 50.1422207,175.550799 72.1285004,158.243865 C80.9939357,151.242597 89.8593711,143.532339 94.9253341,133.403921 C100.573883,122.110735 100.991825,109.032416 103.334833,96.688407 C110.933777,56.4912495 141.329556,21.4216033 180.122168,8.22933935 C234.581271,-10.330986 300.362801,1.98770196 332.455677,52.9716243 C334.013461,55.4024446 335.48259,57.95987 336.87573,60.5426165 Z" id="Path" fill="#1CAB68" opacity="0.18"></path>
                        <polygon id="Path" fill="#1CAB68" points="370.3219 307.916557 360.265963 307.916557 360.265963 307.042981 369.435356 307.042981 369.435356 225.028119 334.074934 225.028119 334.074934 103.79096 301.614776 103.79096 301.614776 102.917384 334.948813 102.917384 334.948813 224.154543 370.3219 224.154543"></polygon>
                        <polygon id="Path" fill="#1CAB68" points="168.962533 167.739257 168.075989 167.739257 168.075989 138.746661 190.708179 138.746661 190.708179 112.577362 191.582058 112.577362 191.582058 139.632898 168.962533 139.632898"></polygon>
                        <rect id="Rectangle" fill="#1CAB68" x="149.078628" y="289.723387" width="142.809499" height="49.5912649" rx="10.43"></rect>
                        <rect id="Rectangle" fill="#1CAB68" x="149.078628" y="230.738015" width="142.809499" height="49.5912649" rx="10.43"></rect>
                        <rect id="Rectangle" fill="url(#linearGradient-1)" x="149.078628" y="289.723387" width="142.809499" height="49.5912649" rx="10.43"></rect>
                        <rect id="Rectangle" fill="url(#linearGradient-2)" x="149.078628" y="230.738015" width="142.809499" height="49.5912649" rx="10.43"></rect>
                        <rect id="Rectangle" fill="#1CAB68" x="163.14934" y="289.723387" width="142.809499" height="49.5912649" rx="10.43"></rect>
                        <path d="M305.958894,243.942939 L305.958894,267.111695 C305.968968,270.623668 304.577842,273.99472 302.093631,276.47807 C299.60942,278.961421 296.237201,280.352066 292.724011,280.341995 L176.371504,280.341995 C172.863734,280.341995 169.500002,278.947242 167.022011,276.465359 C164.54402,273.983476 163.155279,270.618243 163.161981,267.111695 L163.161981,243.942939 C163.161981,236.650061 169.076099,230.73799 176.371504,230.73799 L292.724011,230.73799 C296.231774,230.731291 299.598173,232.119551 302.080915,234.596684 C304.563658,237.073817 305.958894,240.436384 305.958894,243.942939 L305.958894,243.942939 Z" id="Path" fill="#1CAB68"></path>
                        <path d="M305.958839,247.82972 L305.958839,267.111695 C305.955311,271.217849 304.04659,275.090089 300.791557,277.594607 C300.690237,273.492598 300.462269,262.072807 300.791557,257.008598 C301.078651,253.337849 302.968972,249.979987 305.958839,247.82972 L305.958839,247.82972 Z" id="Path" fill="url(#linearGradient-3)"></path>
                        <rect id="Rectangle" fill="#1CAB68" x="149.078628" y="167.739257" width="142.809499" height="49.5912649" rx="10.43"></rect>
                        <rect id="Rectangle" fill="url(#linearGradient-4)" x="149.078628" y="167.739257" width="142.809499" height="49.5912649" rx="10.43"></rect>
                        <rect id="Rectangle" fill="#1CAB68" x="163.14934" y="167.739257" width="142.809499" height="49.5912649" rx="10.43"></rect>
                        <path d="M267.520844,201.656796 C266.447959,202.135253 265.844982,203.288375 266.06438,204.44211 C266.191029,205.568897 266.722955,206.632381 266.900264,207.746507 C267.419525,211.000261 264.709235,214.152731 261.530343,214.975665 C257.363588,216.039149 253.095515,213.937502 249.397361,211.747232 C248.936223,211.506645 248.510121,211.204217 248.130871,210.848335 C247.54115,210.063149 247.181571,209.129442 247.092348,208.151643 C246.69284,206.315893 246.46809,204.446456 246.421108,202.568353 C246.421108,198.276436 248.308179,194.174427 248.409499,189.907831 C248.473798,183.919193 245.17723,178.399109 239.873351,175.614102 C237.715413,174.66274 235.49365,173.863182 233.224274,173.221263 C231.235541,172.530493 229.304474,171.683827 227.449077,170.689159 C226.283905,170.081453 225.004749,169.220538 224.916095,167.916504 C226.869831,167.041212 229.013652,166.67532 231.14723,166.85302 L267.875462,166.85302 C268.336539,166.809302 268.800866,166.892196 269.217942,167.09357 C269.638213,167.412925 269.948168,167.855564 270.104485,168.359622 C272.561478,174.246765 272.270185,180.766934 272.776781,187.008571 C272.975046,190.057511 273.540611,193.071397 274.461214,195.984882 C274.980475,197.567447 276.677573,200.593312 275.61372,202.25184 C273.612665,205.341007 269.775198,201.04909 267.520844,201.656796 Z" id="Path" fill="url(#linearGradient-5)"></path>
                        <path d="M301.589446,95.9794178 C301.589446,100.383661 299.838396,104.607333 296.72186,107.720415 C293.605323,110.833498 289.378854,112.580722 284.973087,112.577362 L171.140897,112.577362 C165.097347,112.744202 159.440061,109.616441 156.369077,104.410422 C153.298094,99.2044034 153.298094,92.7417717 156.369077,87.5357528 C159.440061,82.3297338 165.097347,79.2019733 171.140897,79.3688129 L174.940369,79.3688129 C172.169254,69.5060307 174.177886,58.9151368 180.367974,50.7507283 C186.558063,42.5863198 196.215351,37.7904665 206.463325,37.791647 L216.151979,37.791647 C228.375657,37.7814977 239.583619,44.589906 245.205277,55.4404261 C247.971854,54.0216635 251.037327,53.2837739 254.146702,53.2881374 L256.679683,53.2881374 C261.902839,53.2881374 266.912067,55.3623093 270.605396,59.0543589 C274.298724,62.7464086 276.373615,67.7539025 276.373615,72.9752492 L276.373615,73.9501094 C276.3742,75.7829207 276.118425,77.6068121 275.61372,79.3688129 L285.036412,79.3688129 C294.185739,79.4106058 301.582573,86.8331656 301.589446,95.9794178 L301.589446,95.9794178 Z" id="Path" fill="#FFFFFF"></path>
                        <path d="M219.140897,96.106023 C219.73915,95.1240489 220.207438,94.068638 220.534037,92.9662136 C221.765769,89.6281961 223.190872,86.3646997 224.802111,83.1922905 C225.459709,81.662502 226.435402,80.2900987 227.66438,79.1662445 C229.956728,77.2924872 233.18628,77.2418451 236.149868,77.2798267 C238.125594,77.2798267 240.379947,77.4697345 241.570449,79.0396393 C242.207043,80.0825524 242.528136,81.2873358 242.494987,82.5086223 C243.13148,92.6736758 242.004584,102.872196 239.164116,112.653325 C233.718206,112.931857 228.263852,113.172407 222.801055,113.374975 C219.090237,113.526901 211.681266,115.299374 208.641689,112.640665 C200.8781,105.879946 216.569921,99.7775744 219.140897,96.106023 Z" id="Path" fill="url(#linearGradient-6)"></path>
                        <path d="M343.953562,277.619928 C342.334238,277.620294 341.011762,276.326405 340.977309,274.708008 L340.977309,255.426033 C340.977309,248.433819 335.307036,242.765511 328.312401,242.765511 C321.317766,242.765511 315.647493,248.433819 315.647493,255.426033 L315.647493,274.708008 C315.647493,276.351178 314.314979,277.683231 312.67124,277.683231 C311.027501,277.683231 309.694987,276.351178 309.694987,274.708008 L309.694987,255.426033 C309.694987,245.147479 318.030287,236.815065 328.312401,236.815065 C338.594515,236.815065 346.929815,245.147479 346.929815,255.426033 L346.929815,274.708008 C346.895362,276.326405 345.572886,277.620294 343.953562,277.619928 Z" id="Path" fill="#FFFFFF"></path>
                        <path d="M346.929815,255.426033 L346.929815,274.708008 C346.923101,275.75253 346.364315,276.715621 345.460686,277.240112 C345.006062,277.514714 344.48473,277.659235 343.953562,277.657924 C342.319664,277.657924 340.991214,276.341281 340.977309,274.708008 L340.977309,255.426033 C340.977987,249.016046 336.186169,243.616923 329.819525,242.854134 C329.318983,242.799012 328.815956,242.769433 328.312401,242.765511 C321.317766,242.765511 315.647493,248.433819 315.647493,255.426033 L315.647493,274.708008 C315.63572,275.751145 315.078278,276.711918 314.178364,277.240112 C313.719287,277.515147 313.193781,277.659611 312.658575,277.657924 C311.017718,277.650974 309.68926,276.322975 309.682322,274.682687 L309.682322,255.426033 C309.696289,245.148326 318.031127,236.822038 328.312401,236.815063 C328.81574,236.815063 329.318765,236.840157 329.819525,236.891028 C339.479724,237.675345 346.922065,245.737384 346.929815,255.426033 L346.929815,255.426033 Z" id="Path" fill="url(#linearGradient-7)"></path>
                        <path d="M346.929815,255.426033 L346.929815,274.708008 C347.349142,275.420635 347.193526,276.331654 346.561404,276.864803 C345.929281,277.397952 345.004756,277.397952 344.372633,276.864803 C343.74051,276.331654 343.584895,275.420635 344.004222,274.708008 L344.004222,255.426033 C344.004222,248.433819 338.333949,242.765511 331.339314,242.765511 C330.831548,242.769439 330.324304,242.799018 329.819525,242.854134 C329.318983,242.799012 328.815956,242.769433 328.312401,242.765511 C321.317766,242.765511 315.647493,248.433819 315.647493,255.426033 L315.647493,274.708008 C316.059944,275.420981 315.900557,276.327093 315.269544,276.856646 C314.63853,277.3862 313.718198,277.3862 313.087184,276.856646 C312.456171,276.327093 312.296784,275.420981 312.709235,274.708008 L312.709235,255.426033 C312.152757,248.968559 315.284411,242.748867 320.804253,239.34874 C326.324094,235.948612 333.289626,235.948612 338.809468,239.34874 C344.329309,242.748867 347.460963,248.968559 346.904485,255.426033 L346.929815,255.426033 Z" id="Path" fill="url(#linearGradient-8)"></path>
                        <rect id="Rectangle" fill="#1CAB68" x="294.560422" y="274.632045" width="65.7055409" height="65.6827885" rx="9.04"></rect>
                        <rect id="Rectangle" fill="url(#linearGradient-9)" x="294.560422" y="274.644705" width="65.692876" height="65.670128" rx="9.03"></rect>
                        <rect id="Rectangle" fill="url(#linearGradient-10)" x="305.958839" y="274.644705" width="54.307124" height="65.670128" rx="9.03"></rect>
                        <path d="M333.049077,305.333811 L333.049077,305.333811 C331.08517,304.709541 329.869589,302.747412 330.185568,300.711682 C330.501547,298.675952 332.254764,297.174311 334.315567,297.174311 C336.376371,297.174311 338.129587,298.675952 338.445567,300.711682 C338.761546,302.747412 337.545965,304.709541 335.582058,305.333811 L338.836939,315.664797 L330.110818,315.664797 L333.049077,305.333811 Z" id="Path" fill="url(#linearGradient-11)"></path>
                        <ellipse id="Oval" fill="#FFFFFF" cx="185.528232" cy="193.072962" rx="5.61055409" ry="5.60861128"></ellipse>
                        <ellipse id="Oval" fill="#FFFFFF" cx="202.397889" cy="193.072962" rx="5.61055409" ry="5.60861128"></ellipse>
                        <ellipse id="Oval" fill="#FFFFFF" cx="219.280211" cy="193.072962" rx="5.61055409" ry="5.60861128"></ellipse>
                        <ellipse id="Oval" fill="#FFFFFF" cx="185.528232" cy="255.539977" rx="5.61055409" ry="5.60861128"></ellipse>
                        <ellipse id="Oval" fill="#FFFFFF" cx="202.397889" cy="255.539977" rx="5.61055409" ry="5.60861128"></ellipse>
                        <ellipse id="Oval" fill="#FFFFFF" cx="219.280211" cy="255.539977" rx="5.61055409" ry="5.60861128"></ellipse>
                        <ellipse id="Oval" fill="#FFFFFF" cx="185.528232" cy="318.006993" rx="5.61055409" ry="5.60861128"></ellipse>
                        <ellipse id="Oval" fill="#FFFFFF" cx="202.397889" cy="318.006993" rx="5.61055409" ry="5.60861128"></ellipse>
                        <ellipse id="Oval" fill="#FFFFFF" cx="219.280211" cy="318.006993" rx="5.61055409" ry="5.60861128"></ellipse>
                        <path d="M271.193668,189.414071 C270.946358,190.94637 271.032758,192.513976 271.446966,194.00984 C272.03453,195.425496 273.03673,196.630367 274.3219,197.466163 C277.059453,199.379829 280.431626,200.160197 283.731926,199.643773 C284.178763,199.621489 284.602094,199.436908 284.922427,199.124691 C285.122058,198.8573 285.232793,198.534065 285.23905,198.200473 C285.229059,196.4173 284.546063,194.70362 283.326649,193.402135 C282.114024,192.110419 281.125277,190.625671 280.401055,189.008934 C279.337203,185.869125 281.439578,178.158867 275.71504,178.690608 C270.978364,179.133727 271.548285,186.084353 271.193668,189.414071 Z" id="Path" fill="#FFBBAB"></path>
                        <path d="M250.410554,146.659488 C254.763765,146.815647 259.103304,147.238457 263.404749,147.92554 C271.003694,149.090308 275.867018,152.318741 277.741425,159.940375 C279.463852,166.903662 281.18628,173.955573 281.16095,181.134089 C281.340407,182.828372 280.854526,184.526097 279.805805,185.869125 C278.045383,187.641598 274.853826,186.98325 273.118734,185.210777 C271.383641,183.438304 270.674406,180.893539 269.965172,178.500701 C268.77467,174.436673 267.267546,164.802016 262.961478,163.725871 C255.666491,161.902756 248.168865,166.498526 241.025858,163.725871 C238.474651,162.833713 236.045207,161.625792 233.794195,160.130283 C231.541518,158.614482 229.801633,156.451415 228.804222,153.926627 C228.35249,152.582249 228.100727,151.178835 228.056992,149.761316 C227.968165,148.59686 227.993617,147.426508 228.132982,146.267011 C228.36095,144.924996 228.588918,145.076922 229.944063,145.089583 C232.236412,145.089583 234.516095,145.26683 236.795778,145.482059 C241.329815,145.861875 245.863852,146.532882 250.410554,146.659488 Z" id="Path" fill="#282328"></path>
                        <path d="M269.775198,194.630206 C269.775198,194.630206 268.736675,196.465981 269.559894,197.732034 C270.383113,198.998086 279.565172,206.505775 286.936148,202.391106 C294.307124,198.276436 278.551979,195.554424 278.551979,195.554424 L269.775198,194.630206 Z" id="Path" fill="#1CAB68"></path>
                        <path d="M270.763061,190.161041 C271.434129,189.931214 272.172348,190.227476 272.498153,190.85737 C273.626005,192.541021 275.53779,193.530027 277.564116,193.478098 C279.81847,193.237548 281.034301,190.832049 282.123483,190.945994 C283.212665,191.059939 288.379947,196.782495 288.455937,198.947444 C288.531926,201.112393 285.340369,202.289822 282.022164,202.074593 C278.703958,201.859364 271.573615,198.60561 270.383113,196.693871 C269.430204,194.585777 269.572185,192.144539 270.763061,190.161041 L270.763061,190.161041 Z" id="Path" fill="#FFFFFF"></path>
                        <path d="M255.14723,197.238273 C254.647911,198.71118 254.47505,200.275031 254.640633,201.821382 C254.982691,203.313931 255.773846,204.66594 256.907652,205.695502 C259.291093,208.039581 262.492974,209.365291 265.836412,209.392375 C266.282877,209.441988 266.732318,209.329667 267.102902,209.075861 C267.342937,208.84312 267.506386,208.54283 267.571504,208.214946 C267.852881,206.448468 267.459578,204.640803 266.469657,203.150737 C265.483144,201.679733 264.751042,200.053402 264.303958,198.339739 C263.759367,195.073324 267.102902,187.806184 261.365699,187.388387 C256.565699,187.059214 255.995778,194.035161 255.14723,197.238273 Z" id="Path" fill="#FFBBAB"></path>
                        <path d="M241.583113,151.660394 C245.86748,152.505828 250.096824,153.609305 254.248021,154.96479 C261.505013,157.357629 265.811082,161.295051 266.418997,169.169896 C266.963588,176.323091 267.508179,183.564909 266.317678,190.692783 C266.21382,192.391684 265.455792,193.984352 264.202639,195.136627 C262.176253,196.592587 259.136675,195.427819 257.705541,193.389475 C256.274406,191.351131 256.008443,188.743063 255.704485,186.261601 C255.185224,182.058307 255.286544,172.335026 251.208443,170.537232 C246.902375,168.663475 242.102375,169.27118 237.530343,169.01797 C235.14934,168.891364 232.641689,168.422925 230.311346,168.372283 C222.522427,168.207696 220.901319,162.409177 220.635356,161.49762 C219.670832,158.581662 219.1833,155.529228 219.191454,152.458007 C219.285695,150.95663 219.527495,149.468167 219.913456,148.014164 C220.204749,146.659488 220.217414,146.507561 221.686544,146.748111 C223.953562,147.127927 226.182586,147.672329 228.38628,148.254713 C232.768338,149.368839 237.112401,150.786818 241.583113,151.660394 Z" id="Path" fill="#473F47"></path>
                        <path d="M252.842216,202.150556 C252.842216,202.150556 251.575726,203.796424 252.120317,205.176421 C252.664908,206.556418 260.54248,215.469425 268.496042,212.608147 C276.449604,209.746869 261.353034,204.492752 261.353034,204.492752 L252.842216,202.150556 Z" id="Path" fill="#1CAB68"></path>
                        <path d="M254.539314,197.909281 C255.242708,197.792637 255.925955,198.206746 256.147757,198.884141 C256.987021,200.740652 258.725048,202.032951 260.745119,202.302482 C263.012137,202.429087 264.544591,200.251478 265.659103,200.55533 C266.773615,200.859183 270.877045,207.34137 270.560422,209.417696 C270.243799,211.494021 266.938259,212.20301 263.708707,211.443379 C260.479156,210.683748 253.969393,206.315868 253.108179,204.239542 C252.525677,202.022382 253.059636,199.660549 254.539314,197.909281 L254.539314,197.909281 Z" id="Path" fill="#FFFFFF"></path>
                        <polygon id="Path" fill="#1CAB68" points="269.483905 143.063899 249.840633 150.229755 263.772032 158.85157 283.630607 147.647008"></polygon>
                        <polygon id="Path" fill="url(#linearGradient-12)" points="269.483905 143.063899 249.840633 150.229755 263.772032 158.85157 283.630607 147.647008"></polygon>
                        <polygon id="Path" fill="#1CAB68" points="248.95409 152.217457 264.215303 162.788993 289.722427 152.217457 299.512401 132.505024 270.015831 141.367389 263.772032 158.85157 249.840633 150.229755"></polygon>
                        <path d="M252.196306,130.631267 C250.676517,131.542824 249.080739,131.897319 247.788918,130.973101 L247.472296,130.70723 C245.42058,128.694207 245.091293,124.376969 245.179947,121.224499 C245.21454,119.898416 245.32448,118.575369 245.509235,117.261755 L253.260158,107.842327 L257.262269,125.85825 C255.840158,127.710147 254.129719,129.321678 252.196306,130.631267 Z" id="Path" fill="#FFFFFF"></path>
                        <path d="M252.259631,126.124121 C252.120317,126.985036 252.107652,127.896594 251.981003,128.78283 C251.284433,133.61915 249.448021,138.430148 250.144591,143.380412 C250.476357,144.456955 250.449692,145.612051 250.068602,146.672148 C249.529261,147.485833 248.708478,148.071903 247.763588,148.318016 C243.153562,150.027187 238.125594,150.014526 233.211609,149.976544 C229.526121,149.976544 224.23219,150.267736 221.179947,147.824256 C220.047741,146.691374 219.406375,145.158995 219.394195,143.55766 C218.84964,138.376886 218.84964,133.153331 219.394195,127.972557 L219.546174,125.946874 C219.968338,121.279361 220.559367,116.63717 221.319261,112.020299 C221.889182,108.677921 222.687071,105.082333 225.258047,102.866742 C228.677573,99.9168402 234.655409,98.5241827 239.062797,98.359596 C240.49581,98.2713871 241.934,98.3951054 243.330871,98.7267511 C245.285481,99.3438103 247.122229,100.285406 248.764116,101.512066 C250.739842,102.879402 252.500264,104.04417 253.234828,106.310404 C254.029039,108.909603 254.45534,111.607152 254.501319,114.324514 C254.534114,116.88897 254.21017,119.445537 253.538786,121.920828 C253.222164,123.123577 252.728232,124.301006 252.424274,125.503755 C252.33562,125.681003 252.297625,125.896231 252.259631,126.124121 Z" id="Path" fill="#FFFFFF"></path>
                        <path d="M228.487599,150.634892 C227.01847,150.83746 223.978892,149.077647 222.927704,148.723153 C222.307124,148.520584 221.762533,148.115448 221.154617,147.862237 C218.06438,146.596185 219.014248,137.543912 219.052243,135.07511 C219.178892,128.554941 218.874934,121.74358 219.748813,115.312035 C219.974158,112.816989 220.629741,110.379748 221.686544,108.108198 C222.767486,105.813629 224.814807,104.119721 227.271768,103.487107 C227.741935,103.340987 228.2454,103.340987 228.715567,103.487107 C230.589974,104.27206 230.526649,107.551135 230.627968,109.159021 C230.660753,110.778025 231.000255,112.376142 231.628496,113.868735 C232.363061,115.451301 233.540897,116.033685 234.680739,117.211113 C237.353088,119.726132 239.478524,122.764495 240.924538,126.136781 C241.583113,127.909254 241.925066,129.783012 242.507652,131.593466 C244.012251,135.562176 246.150838,139.26065 248.840106,142.544818 C249.751979,143.81087 250.727177,145.330133 250.195251,146.773432 C249.721382,147.775589 248.840787,148.526831 247.776253,148.837097 C246.472799,149.365604 245.058227,149.5614 243.660158,149.406821 C240.354617,148.976363 237.859631,146.304993 234.908707,144.77307 C233.88285,144.241328 231.919789,143.342431 230.754617,143.848852 C229.589446,144.355273 229.184169,145.912517 229.00686,146.96334 C228.905541,147.634348 229.462797,149.811958 229.146174,150.242415 C228.993819,150.462359 228.753601,150.605516 228.487599,150.634892 L228.487599,150.634892 Z" id="Path" fill="#020202" opacity="0.1"></path>
                        <path d="M246.699736,95.3843733 C246.102884,95.8658646 245.350958,96.1134192 244.584697,96.080702 C243.940438,96.0595242 243.299854,95.974708 242.672296,95.8274915 L242.330343,95.8274915 C242.245987,95.7884651 242.148736,95.7884651 242.06438,95.8274915 C241.973858,95.8883739 241.913886,95.9852186 241.899736,96.0933625 C241.580522,97.3390106 241.368666,98.6097104 241.266491,99.8915191 L241.266491,99.8915191 L241.266491,100.587848 C241.279728,100.830954 241.222563,101.072721 241.101847,101.284177 C240.879425,101.518403 240.57587,101.658805 240.253298,101.676653 C239.67032,101.771422 239.075854,101.771422 238.492876,101.676653 C237.258067,101.373853 236.11785,100.769139 235.17467,99.9168402 C235.579545,97.7627899 235.783061,95.575755 235.782586,93.3840108 C235.782586,90.5480538 235.478628,87.6741153 236.187863,84.926782 C236.392586,83.6103117 237.155727,82.4462232 238.281508,81.7331519 C239.40729,81.0200805 240.786158,80.8274175 242.06438,81.2045886 C244.070359,81.4598382 245.960694,82.2860239 247.51029,83.5847667 C247.965231,84.0714728 248.182933,84.7336133 248.105541,85.3952214 C248.105541,86.5220078 248.168865,87.6487943 248.105541,88.7755808 C248.042216,89.9023672 247.940897,91.3076852 247.776253,92.5737374 C247.758559,93.6078888 247.377473,94.6028532 246.699736,95.3843733 L246.699736,95.3843733 Z" id="Path" fill="#FFBBAB"></path>
                        <path d="M246.11715,84.0405455 C244.673351,84.0405455 243.140897,83.5974272 241.722427,83.9519218 C239.714574,84.6345223 238.519336,86.6943777 238.923483,88.7755808 C238.340897,88.8895255 238.391557,87.8893442 238.036939,87.4335654 C237.682322,86.9777866 236.643799,87.4335654 236.479156,88.0412705 C236.415272,88.7281687 236.524109,89.4201369 236.795778,90.0542935 C237.12137,91.3198427 237.009799,92.6582291 236.479156,93.8524501 C236.352507,94.1309816 236.086544,94.4474946 235.807916,94.3335499 C235.529288,94.2196052 235.377309,93.6752028 235.237995,93.4219924 C235.003027,93.0637487 234.744961,92.7211891 234.465435,92.3964901 C233.895515,91.7254824 233.198945,91.1304379 232.654354,90.4467697 C231.478057,89.3528096 230.866888,87.7811104 230.995251,86.1801737 C231.122453,85.5479463 231.425323,84.9643551 231.869129,84.4963243 C232.236964,84.0825521 232.690828,83.7541547 233.198945,83.5341246 C233.401583,83.4328404 233.642216,83.3315563 233.718206,83.1289879 C233.743451,83.0036403 233.743451,82.8745199 233.718206,82.7491722 C233.662693,81.0551708 234.603885,79.4854101 236.124538,78.7357868 C237.622388,78.0249098 239.267065,77.6778687 240.924538,77.722945 C242.001055,77.722945 243.077573,77.722945 244.15409,77.722945 C245.034563,77.8061936 245.922842,77.7289787 246.775726,77.4950556 C246.648125,76.8909137 246.448272,76.304314 246.180475,75.7479035 C246.890012,76.0775698 247.550606,76.5036118 248.143536,77.0139558 C248.164168,76.6422759 248.12134,76.2697975 248.016887,75.9124903 C249.158691,76.3826003 250.14897,77.1579044 250.879156,78.1534027 C251.593417,79.5396753 251.387509,81.221516 250.359894,82.3946776 C249.36268,83.4232695 247.99329,84.0073402 246.560422,84.0152245 L246.11715,84.0405455 Z" id="Path" fill="#FC682D"></path>
                        <path d="M242.672296,95.8274915 L242.330343,95.8274915 C242.245987,95.7884651 242.148736,95.7884651 242.06438,95.8274915 C241.973858,95.8883739 241.913886,95.9852186 241.899736,96.0933625 C241.580522,97.3390106 241.368666,98.6097104 241.266491,99.8915191 L241.266491,99.8915191 C239.066416,98.814108 237.932267,96.3346786 238.556201,93.9663948 C239.849553,94.7441555 241.220566,95.3848716 242.646966,95.8781336 L242.672296,95.8274915 Z" id="Path" fill="#E0A194"></path>
                        <path d="M275.626385,137.303362 C274.777836,136.948867 274.055937,136.151254 273.093404,136.189236 C272.130871,136.227217 271.358311,137.354004 270.560422,138.088314 C269.691566,138.863539 268.558257,139.275921 267.394195,139.240422 C267.026379,139.223756 266.661323,139.168592 266.305013,139.075835 C264.802885,138.634645 263.491949,137.703044 262.58153,136.429786 C262.58153,136.429786 264.937203,133.783737 265.241161,133.606489 C266.279683,133.011445 267.685488,133.062087 268.8,132.467042 C269.928645,131.753753 271.095568,131.102869 272.295515,130.517322 C274.74787,129.507153 277.534021,129.718508 279.805805,131.087046 C280.084433,131.251632 280.388391,131.555485 280.236412,131.859337 C280.170921,131.97438 280.06818,132.063688 279.945119,132.112548 L279.945119,132.112548 C278.642664,132.628898 277.224405,132.782052 275.841689,132.555666 C276.655804,132.952003 277.413842,133.454348 278.096042,134.049608 C278.4,134.315479 278.678628,134.8219 278.34934,135.062449 C278.171368,135.138454 277.970056,135.138454 277.792084,135.062449 L274.727177,134.315479 C275.519977,134.926803 276.179388,135.693695 276.664908,136.569052 C276.755007,136.712845 276.799182,136.88065 276.791557,137.050151 C276.639578,137.442628 276.031662,137.480609 275.626385,137.303362 Z" id="Path" fill="#FFBBAB"></path>
                        <path d="M275.626385,137.303362 C274.777836,136.948867 274.055937,136.151254 273.093404,136.189236 C272.130871,136.227217 271.358311,137.354004 270.560422,138.088314 C269.691566,138.863539 268.558257,139.275921 267.394195,139.240422 C267.099174,139.105293 266.819034,138.939813 266.558311,138.746661 C266.362172,138.622513 266.21463,138.434797 266.140369,138.214919 C266.099908,137.801132 266.361043,137.417558 266.76095,137.303362 C267.176875,137.203822 267.600605,137.140285 268.027441,137.113454 C268.699742,136.991995 269.301356,136.621204 269.711873,136.075291 C270.053826,135.619512 270.269129,135.037128 270.763061,134.809239 C271.089208,134.660683 271.443179,134.583009 271.801583,134.58135 L273.194723,134.492726 C273.408331,134.496132 273.620112,134.452926 273.815303,134.366121 C274.011844,134.271447 274.128224,134.064058 274.106596,133.847039 C274.106596,133.606489 273.815303,133.479884 273.587335,133.391261 C273.131398,133.226674 271.598945,133.13805 272.586807,132.593648 C273.302471,132.289321 274.064895,132.109485 274.841161,132.061906 C276.395255,131.910331 277.960418,131.910331 279.514512,132.061906 C279.680973,132.080233 279.845997,132.109842 280.008443,132.150529 L280.008443,132.150529 C278.705989,132.66688 277.287729,132.820034 275.905013,132.593648 C276.719129,132.989984 277.477167,133.49233 278.159367,134.087589 C278.463325,134.35346 278.741953,134.859881 278.412665,135.100431 C278.234693,135.176435 278.033381,135.176435 277.855409,135.100431 L274.790501,134.35346 C275.583302,134.964784 276.242713,135.731677 276.728232,136.607033 C276.818331,136.750826 276.862506,136.918632 276.854881,137.088133 C276.639578,137.442628 276.031662,137.480609 275.626385,137.303362 Z" id="Path" fill="#E0A194"></path>
                        <path d="M262.733509,137.328683 C259.603407,137.289051 256.504401,136.70203 253.576781,135.594191 C251.495459,134.782857 249.655828,133.453727 248.23219,131.732732 C248.04474,131.509131 247.90277,131.251093 247.814248,130.973101 C247.655917,130.500685 247.655917,129.989556 247.814248,129.517141 C248.208,128.12763 249.021964,126.893841 250.144591,125.984855 C253.171504,123.731282 257.287599,125.85825 257.287599,125.85825 C257.287599,125.85825 265.000528,131.859337 265.215831,133.049426 C265.34248,133.695113 264.595251,134.910523 263.873351,135.872723 C263.151451,136.834923 262.733509,137.328683 262.733509,137.328683 Z" id="Path" fill="#FFFFFF"></path>
                        <path d="M228.059719,103.137577 L231.008932,103.137771 C234.051739,103.138693 236.518371,105.605326 236.519294,108.648132 L236.520727,130.495272 C236.521649,133.538361 234.0549,136.005434 231.011811,136.005633 C231.01157,136.005633 231.011329,136.005633 231.011088,136.00491 L228.061876,136.004717 C225.019069,136.003794 222.552437,133.537162 222.551514,130.494356 L222.550081,108.647216 C222.549158,105.604127 225.015907,103.137054 228.058996,103.136855 C228.059237,103.136855 228.059478,103.136855 228.059719,103.137577 Z" id="Rectangle" fill="#FFFFFF" transform="translate(229.535404, 119.571244) rotate(-11.130000) translate(-229.535404, -119.571244) "></path>
                        <path d="M262.733509,137.328683 C259.603407,137.289051 256.504401,136.70203 253.576781,135.594191 C253.209499,135.454926 251.322427,134.328139 251.043799,134.442084 C250.928758,134.530037 250.848113,134.655442 250.815831,134.796578 L249.789974,137.721159 C249.167537,137.312805 248.780734,136.62906 248.751451,135.885383 C248.675462,135.151073 248.751451,134.416763 248.675462,133.695113 C248.437262,132.575805 248.058537,131.49107 247.548285,130.46668 C246.16781,126.947055 246.421108,123.022293 246.687071,119.249457 L249.498681,126.605221 C249.728876,127.307951 250.052626,127.976518 250.461214,128.592923 C250.837016,129.058871 251.261595,129.483302 251.727704,129.858975 C253.730284,131.645163 256.032651,133.063822 258.52876,134.049608 C258.959367,134.226855 263.696042,136.239878 263.94934,135.872723 C263.290765,136.708317 262.733509,137.328683 262.733509,137.328683 Z" id="Path" fill="#020202" opacity="0.1"></path>
                        <path d="M264.139314,152.78718 C263.37942,152.116173 262.872823,151.027368 261.897625,150.774157 C260.922427,150.520947 259.9219,151.457826 258.972032,152.04021 C257.883472,152.584958 256.611043,152.626587 255.489182,152.154154 C255.120622,152.015336 254.768174,151.837051 254.437995,151.622412 C253.009844,150.61335 251.919567,149.196922 251.309763,147.558385 C251.309763,147.558385 254.210026,145.482059 254.551979,145.393435 C255.71715,145.102243 257.08496,145.608664 258.351451,145.393435 C259.627963,144.998432 260.92615,144.677168 262.239578,144.431236 C265.040109,144.219032 267.772365,145.363357 269.585224,147.507743 C269.825858,147.786274 270.053826,148.216732 269.851187,148.482603 C269.764995,148.584389 269.642119,148.648081 269.509235,148.65985 L269.509235,148.65985 C268.062695,148.773587 266.613536,148.475076 265.329815,147.798935 C266.064399,148.495125 266.707062,149.28222 267.242216,150.141131 C267.495515,150.520947 267.660158,151.153973 267.242216,151.305899 C267.064908,151.305899 266.862269,151.305899 266.68496,151.141312 L263.797361,149.330858 C264.461561,150.255546 264.950887,151.29393 265.241161,152.394704 C265.297453,152.571809 265.297453,152.762002 265.241161,152.939107 C265.114512,153.26828 264.493931,153.166996 264.139314,152.78718 Z" id="Path" fill="#FFBBAB"></path>
                        <path d="M264.139314,152.78718 C263.37942,152.116173 262.872823,151.027368 261.897625,150.774157 C260.922427,150.520947 259.9219,151.457826 258.972032,152.04021 C257.883472,152.584958 256.611043,152.626587 255.489182,152.154154 C255.222622,151.912935 254.980793,151.645741 254.767282,151.356541 C254.590065,151.159194 254.479314,150.911199 254.45066,150.647552 C254.477149,150.210794 254.836206,149.868427 255.273879,149.8626 C255.700929,149.887385 256.124839,149.95095 256.540369,150.052508 C257.224845,150.156521 257.920294,149.952593 258.440106,149.495445 C258.883377,149.115629 259.22533,148.558566 259.706596,148.40664 C260.067297,148.348024 260.436865,148.378448 260.783113,148.495263 L262.201583,148.862418 C262.410401,148.906122 262.62601,148.906122 262.834828,148.862418 C263.063268,148.820902 263.231943,148.625939 263.240106,148.393979 C263.202881,148.127662 263.049928,147.891362 262.822164,147.748293 C262.404222,147.419119 260.897098,146.811414 261.998945,146.558203 C262.782444,146.457452 263.578039,146.50904 264.341953,146.71013 C265.940464,147.074779 267.497796,147.600779 268.989974,148.280034 C269.156622,148.352043 269.317514,148.436694 269.47124,148.533245 L269.47124,148.533245 C268.0247,148.646982 266.575541,148.348471 265.291821,147.672329 C266.026405,148.368519 266.669067,149.155615 267.204222,150.014526 C267.45752,150.394342 267.622164,151.027368 267.204222,151.179294 C267.026913,151.179294 266.824274,151.179294 266.646966,151.014707 L263.759367,149.204253 C264.423566,150.128941 264.912892,151.167325 265.203166,152.268099 C265.259458,152.445204 265.259458,152.635396 265.203166,152.812501 C265.114512,153.26828 264.493931,153.166996 264.139314,152.78718 Z" id="Path" fill="#E0A194"></path>
                        <path d="M243.014248,131.644108 L256.109763,143.279128 L251.778364,151.141312 C251.778364,151.141312 226.866491,139.480972 225.6,133.847039 C224.333509,128.213107 230.919261,128.428336 230.919261,128.428336 C230.919261,128.428336 236.365172,124.199722 243.014248,131.644108 Z" id="Path" fill="#FFFFFF"></path>
                        <rect id="Rectangle" fill="#1CAB68" x="312.709235" y="144.53252" width="53.3065963" height="53.2881374"></rect>
                        <rect id="Rectangle" fill="#1CAB68" opacity="0.18" x="106.410554" y="119.844502" width="39.083905" height="53.2881374"></rect>
                        <rect id="Rectangle" fill="#FFFFFF" x="96.8865435" y="128.478978" width="39.083905" height="53.2881374"></rect>
                        <path d="M78.1171504,277.695891 C78.4050952,280.412946 79.3481627,283.019603 80.8654354,285.292204 C86.944591,296.028327 93.7583113,306.599863 103.168338,314.563331 C117.011082,326.261654 135.1219,331.313202 152.624802,336.086219 C151.067018,335.326588 149.179947,327.223853 148.483377,325.489362 C147.128232,322.020379 145.861741,318.513414 144.569921,315.01911 C142.505541,309.511783 138.237467,305.0806 133.982058,301.016573 C124.45898,291.819289 112.886355,285.015241 100.217414,281.164874 C93.0509774,278.973316 85.6106186,277.805435 78.1171504,277.695891 L78.1171504,277.695891 Z" id="Path" fill="#1CAB68"></path>
                        <path d="M78.1171504,277.695891 C78.4050952,280.412946 79.3481627,283.019603 80.8654354,285.292204 C86.944591,296.028327 93.7583113,306.599863 103.168338,314.563331 C117.011082,326.261654 135.1219,331.313202 152.624802,336.086219 C151.067018,335.326588 149.179947,327.223853 148.483377,325.489362 C147.128232,322.020379 145.861741,318.513414 144.569921,315.01911 C142.505541,309.511783 138.237467,305.0806 133.982058,301.016573 C124.45898,291.819289 112.886355,285.015241 100.217414,281.164874 C93.0509774,278.973316 85.6106186,277.805435 78.1171504,277.695891 L78.1171504,277.695891 Z" id="Path" fill="url(#linearGradient-13)"></path>
                        <path d="M146.596306,283.709639 C145.165172,273.720487 143.696042,263.60473 139.681266,254.349888 C135.666491,245.095047 128.700792,236.625157 119.240106,233.168835 C118.961478,247.466785 118.687071,261.760514 118.416887,276.050023 C118.252243,284.304684 118.112929,292.723931 120.481266,300.636757 C124.648021,314.563331 139.073351,330.78146 152.966755,335.364569 C155.031135,328.705134 151.573615,318.614698 150.585752,311.689393 L146.596306,283.709639 Z" id="Path" fill="#1CAB68"></path>
                        <rect id="Rectangle" fill="#FFFFFF" x="247.966227" y="253.273744" width="43.9092348" height="4.51980638"></rect>
                        <rect id="Rectangle" fill="#FFFFFF" x="247.966227" y="315.74076" width="43.9092348" height="4.51980638"></rect>
                        <path d="M325.65277,162.269911 L339.077573,155.255982 L351.957784,162.23193 C351.957784,162.23193 349.564116,179.4629 339.394195,184.400504 C339.368865,184.400504 326.754617,179.576845 325.65277,162.269911 Z" id="Path" fill="#FFFFFF"></path>
                    </g>
                </g>
            </g>
        </g>
    </g>
</svg>